<?xml version="1.0" standalone="no"?>
<!DOCTYPE svg PUBLIC "-//W3C//DTD SVG 20010904//EN"
 "http://www.w3.org/TR/2001/REC-SVG-20010904/DTD/svg10.dtd">
<svg version="1.0" xmlns="http://www.w3.org/2000/svg"
 width="700.000000pt" height="700.000000pt" viewBox="0 0 700.000000 700.000000"
 preserveAspectRatio="xMidYMid meet">
<metadata>
Created by potrace 1.14, written by Peter Selinger 2001-2017
</metadata>
<g transform="translate(0.000000,700.000000) scale(0.100000,-0.100000)"
fill="#000000" stroke="none">
<path d="M2645 6811 c-66 -31 -126 -89 -171 -167 -15 -27 -32 -52 -37 -55 -5
-4 -50 -16 -100 -28 -51 -12 -128 -39 -172 -60 -256 -122 -315 -154 -370 -199
-33 -28 -89 -65 -125 -82 -36 -17 -72 -37 -80 -44 -18 -16 -50 -14 -109 8 -66
25 -173 36 -249 25 -140 -20 -198 -46 -280 -123 -62 -58 -116 -160 -127 -239
l-6 -48 -32 8 c-18 4 -73 7 -123 6 -95 -2 -145 -19 -232 -82 -38 -27 -116
-121 -107 -130 3 -3 10 1 15 9 19 30 9 -3 -21 -73 -40 -90 -42 -172 -9 -261
20 -53 90 -146 110 -146 4 0 37 -18 72 -39 63 -38 143 -71 174 -71 12 0 14 -5
9 -17 -4 -10 -21 -58 -38 -108 -16 -49 -37 -108 -47 -130 -37 -82 -72 -214
-90 -340 -11 -72 -26 -149 -34 -171 -24 -69 -37 -181 -37 -334 0 -80 -1 -194
-2 -255 -1 -119 9 -300 18 -315 3 -5 -7 -28 -22 -51 -15 -23 -36 -53 -45 -68
-10 -14 -18 -43 -18 -65 0 -21 -5 -67 -11 -101 -15 -80 1 -139 53 -196 21 -23
38 -47 38 -53 1 -11 48 -48 118 -92 51 -33 142 -204 212 -399 17 -49 48 -121
67 -158 19 -38 33 -70 31 -70 -97 -47 -126 -68 -185 -131 -75 -79 -103 -138
-103 -220 0 -115 69 -277 148 -347 25 -21 75 -54 111 -72 54 -26 77 -32 131
-32 36 0 75 4 88 8 20 8 21 6 13 -15 -16 -43 -22 -143 -11 -197 10 -56 70
-155 104 -175 11 -6 28 -19 39 -29 52 -50 192 -88 277 -76 81 12 217 79 204
101 -4 6 -3 8 3 5 6 -4 19 6 28 21 15 23 86 121 105 145 4 4 40 -8 81 -28 41
-19 101 -40 134 -46 61 -11 163 -7 187 7 7 5 19 9 25 10 27 4 84 47 97 72 7
15 17 49 20 75 6 40 11 48 24 43 9 -3 71 -25 137 -50 l120 -45 110 -108 c125
-122 220 -182 371 -232 141 -47 204 -54 423 -48 108 3 208 9 223 12 20 5 27 3
32 -12 8 -23 60 -83 73 -83 5 0 18 -8 29 -19 67 -62 155 -93 262 -93 151 0
259 73 341 231 46 90 45 79 50 297 0 21 12 43 40 72 41 43 51 40 51 -13 0 -28
38 -68 57 -61 7 3 13 1 13 -3 0 -5 21 -16 47 -25 67 -23 180 -20 288 9 81 21
91 22 100 8 32 -51 153 -155 213 -185 59 -29 79 -33 167 -36 93 -4 105 -2 180
28 95 37 106 46 148 119 26 46 33 71 38 141 7 92 -10 182 -40 210 -9 8 -25 26
-36 40 -19 25 -19 25 10 -1 49 -44 90 -59 154 -59 58 0 131 24 131 42 0 5 -6
6 -12 2 -7 -4 16 21 52 54 36 34 70 61 76 62 6 0 17 13 24 29 6 16 18 32 25
35 32 12 72 184 46 200 -4 3 -10 38 -13 79 -4 55 -11 84 -32 119 -32 55 -111
131 -160 155 -20 9 -36 20 -36 24 0 4 -14 12 -32 18 l-32 11 67 63 c53 51 74
80 106 148 21 46 45 111 52 144 9 40 26 77 51 110 52 69 86 158 105 278 9 56
32 152 51 212 31 100 35 126 42 280 5 94 13 193 19 220 16 78 13 266 -4 289
-8 10 -11 24 -7 30 4 6 7 72 8 146 0 92 6 159 18 210 34 142 2 245 -107 352
-57 56 -65 69 -72 113 -9 66 -51 198 -81 257 -13 26 -24 49 -24 50 0 2 20 2
45 0 72 -6 176 24 235 68 129 96 176 197 168 364 -3 77 -9 101 -36 157 -57
118 -145 185 -283 214 -93 20 -135 19 -188 -5 -24 -11 -45 -20 -47 -20 -2 0
-4 15 -4 33 -1 75 -71 179 -153 225 -84 47 -148 62 -269 62 -115 0 -144 -7
-212 -54 -21 -14 -44 -26 -50 -26 -6 0 -39 27 -74 59 -43 40 -100 78 -181 120
-65 33 -127 62 -137 64 -22 3 -66 30 -129 77 -58 44 -145 84 -263 120 -56 17
-123 43 -147 57 -53 29 -199 84 -235 88 -14 1 -56 6 -95 10 -38 4 -122 21
-185 37 -106 27 -127 29 -270 27 -97 -2 -171 2 -197 10 -36 10 -167 16 -268
12 -16 -1 -70 -1 -119 -1 -80 1 -93 3 -123 26 -71 54 -136 74 -236 73 -79 0
-101 -5 -152 -28z m842 -117 c-3 -3 -12 -4 -19 -1 -8 3 -5 6 6 6 11 1 17 -2
13 -5z m63 -8 c0 -2 -7 -7 -16 -10 -8 -3 -12 -2 -9 4 6 10 25 14 25 6z m-460
-121 c9 -25 9 -26 -5 -15 -8 7 -23 28 -31 46 -9 19 -20 34 -25 34 -5 0 -9 5
-9 12 0 18 58 -45 70 -77z m736 37 c-17 -16 -18 -16 -5 5 7 12 15 20 18 17 3
-2 -3 -12 -13 -22z m124 -26 c0 -2 -8 -10 -17 -17 -16 -13 -17 -12 -4 4 13 16
21 21 21 13z m236 -54 c-17 -16 -18 -16 -5 5 7 12 15 20 18 17 3 -2 -3 -12
-13 -22z m-1759 12 c-3 -3 -12 -4 -19 -1 -8 3 -5 6 6 6 11 1 17 -2 13 -5z
m-117 -34 c0 -5 -2 -10 -4 -10 -3 0 -8 5 -11 10 -3 6 -1 10 4 10 6 0 11 -4 11
-10z m2140 6 c0 -2 -8 -10 -17 -17 -16 -13 -17 -12 -4 4 13 16 21 21 21 13z
m-2455 -136 c-3 -5 -12 -10 -18 -10 -7 0 -6 4 3 10 19 12 23 12 15 0z m1253 3
c-16 -2 -40 -2 -55 0 -16 2 -3 4 27 4 30 0 43 -2 28 -4z m34 -65 c3 -29 9 -62
13 -73 6 -14 5 -17 -2 -10 -6 6 -16 34 -22 63 -13 64 -14 72 -2 72 5 0 11 -24
13 -52z m-1362 28 c0 -2 -8 -10 -17 -17 -16 -13 -17 -12 -4 4 13 16 21 21 21
13z m2513 -52 c42 -22 32 -24 -20 -4 -76 28 -80 30 -43 24 19 -4 47 -13 63
-20z m-2603 -28 c0 -2 -7 -7 -16 -10 -8 -3 -12 -2 -9 4 6 10 25 14 25 6z
m3110 0 c0 -2 -8 -10 -17 -17 -16 -13 -17 -12 -4 4 13 16 21 21 21 13z m-1187
-13 c-7 -2 -19 -2 -25 0 -7 3 -2 5 12 5 14 0 19 -2 13 -5z m150 -20 c-13 -2
-33 -2 -45 0 -13 2 -3 4 22 4 25 0 35 -2 23 -4z m-1613 -15 c0 -7 -29 -28 -64
-46 -97 -50 -354 -213 -437 -277 l-74 -56 -3 33 c-3 29 2 39 47 79 28 25 97
68 153 96 59 30 127 73 159 102 55 49 83 59 212 80 4 0 7 -5 7 -11z m1805 -14
c22 -8 50 -14 62 -14 12 0 32 -4 45 -9 13 -5 43 -15 68 -22 25 -7 49 -16 55
-21 5 -4 17 -8 27 -8 10 0 18 -4 18 -10 0 -5 13 -10 29 -10 16 0 53 -12 83
-27 29 -14 80 -39 113 -56 33 -16 67 -35 75 -41 8 -7 27 -18 43 -26 27 -14 36
-30 16 -30 -14 0 -83 41 -87 52 -2 4 -10 8 -18 8 -24 0 -154 62 -148 71 3 5
-1 6 -9 3 -8 -3 -41 5 -73 18 -107 43 -283 96 -392 119 -44 9 -58 16 -45 20
22 9 84 1 138 -17z m-795 -19 c0 -5 -5 -3 -10 5 -5 8 -10 20 -10 25 0 6 5 3
10 -5 5 -8 10 -19 10 -25z m-1875 -31 c148 -41 235 -146 234 -284 0 -69 -4
-77 -59 -143 -44 -53 -134 -120 -194 -145 l-31 -12 30 6 c17 4 35 7 42 7 7 0
10 3 8 6 -2 4 10 14 26 23 16 9 31 13 34 8 3 -5 -3 -13 -12 -19 -10 -6 -14
-11 -10 -11 18 0 56 37 47 46 -5 5 1 18 15 30 13 12 26 20 28 18 1 -2 15 15
30 38 15 23 27 35 27 27 0 -22 -52 -99 -93 -138 -39 -37 -85 -50 -184 -51 -35
0 -63 -4 -63 -8 0 -5 25 -16 55 -26 65 -20 104 -47 380 -261 114 -88 224 -172
244 -186 23 -16 36 -33 35 -47 -1 -26 11 -29 20 -6 4 9 9 14 12 12 8 -8 -24
-79 -40 -92 -22 -17 -55 -173 -62 -296 -5 -73 -11 -109 -18 -107 -17 6 -19
120 -2 179 8 29 18 64 22 78 6 22 5 23 -9 10 -16 -15 -55 -149 -59 -202 -2
-23 -5 -25 -23 -16 -60 32 -95 60 -89 70 4 6 3 8 -3 5 -13 -8 -96 50 -89 62 3
4 -7 21 -22 37 -15 17 -20 21 -12 10 9 -12 -2 -7 -27 13 -24 18 -43 37 -43 42
0 6 -4 7 -10 4 -5 -3 -10 1 -10 10 0 11 -5 15 -16 11 -8 -3 -12 -2 -9 3 3 5
-3 12 -14 16 -11 3 -34 19 -53 36 -18 16 -56 45 -85 64 -29 20 -58 41 -65 48
-28 26 -107 87 -113 87 -3 0 -3 -6 1 -12 4 -7 5 -11 1 -8 -3 3 -6 10 -7 15 -3
15 -21 35 -32 35 -6 0 -4 -8 3 -17 13 -16 12 -17 -3 -5 -10 8 -16 17 -15 21 1
4 -30 42 -69 84 -84 90 -116 101 -151 55 -11 -16 -27 -43 -33 -59 -7 -16 -17
-29 -22 -29 -6 0 -8 -6 -5 -14 8 -20 -34 -54 -63 -51 -14 1 -27 -2 -30 -6 -11
-17 -136 -29 -171 -17 -81 27 -194 133 -233 218 -43 95 -12 252 65 326 37 36
38 56 1 23 -16 -13 -11 -8 10 13 80 75 222 108 345 79 42 -10 61 -23 106 -70
30 -31 64 -76 76 -99 31 -61 34 -52 7 21 -43 113 -57 142 -83 169 -23 24 -25
32 -19 74 3 26 17 71 30 100 13 29 21 55 18 59 -4 4 -2 5 3 3 6 -1 30 16 54
40 108 104 282 142 446 96z m3326 -4 c40 -16 82 -39 93 -51 15 -14 -8 -7 -74
26 -52 26 -97 49 -99 51 -10 9 11 2 80 -26z m486 24 c-3 -3 -12 -4 -19 -1 -8
3 -5 6 6 6 11 1 17 -2 13 -5z m58 -32 c-3 -3 -11 0 -18 7 -9 10 -8 11 6 5 10
-3 15 -9 12 -12z m638 -60 c64 -32 114 -81 99 -97 -4 -5 -1 -5 6 -1 20 12 62
-89 62 -149 0 -41 -5 -57 -29 -86 -29 -35 -149 -102 -173 -97 -7 1 -26 -5 -43
-15 -19 -10 -24 -16 -13 -17 9 0 19 4 22 9 3 5 15 7 25 4 49 -13 182 52 236
114 35 40 107 63 201 63 114 0 212 -54 264 -145 17 -30 28 -60 24 -66 -4 -7
-3 -9 4 -5 16 10 35 -99 29 -170 -7 -90 -69 -216 -98 -198 -5 3 2 19 15 35 14
16 28 38 31 49 4 11 10 18 15 15 4 -3 6 4 3 16 -5 17 -9 13 -25 -23 -22 -49
-101 -128 -154 -153 -19 -9 -33 -19 -31 -22 3 -2 26 6 51 20 25 13 43 27 39
31 -3 3 1 6 9 6 9 0 19 8 22 17 5 12 9 14 18 5 6 -6 10 -13 7 -15 -2 -1 -20
-14 -39 -28 -19 -15 -63 -36 -98 -49 -75 -28 -165 -24 -229 9 -52 26 -66 45
-19 26 20 -8 41 -15 48 -14 19 1 -64 31 -84 31 -28 -1 -126 133 -146 199 -9
32 -21 59 -25 59 -13 0 -3 -127 13 -183 13 -43 13 -51 -1 -75 -9 -15 -21 -26
-27 -25 -6 2 -9 -3 -6 -10 5 -14 -86 -106 -160 -161 -41 -31 -51 -35 -65 -24
-14 11 -14 11 -3 -4 11 -14 10 -18 -6 -27 -11 -6 -23 -7 -27 -3 -5 4 -5 2 -1
-5 4 -7 -27 -38 -81 -79 -49 -38 -120 -94 -160 -126 -68 -56 -98 -73 -74 -45
6 8 7 17 3 21 -17 18 2 58 24 49 7 -2 22 10 34 26 12 17 26 28 32 25 7 -4 8
-2 4 4 -4 7 -49 -19 -126 -74 -121 -88 -190 -143 -179 -144 3 0 19 11 34 24
16 14 32 23 36 20 4 -2 10 3 13 12 4 10 14 14 26 11 11 -3 19 -2 18 2 -2 21 4
30 17 25 11 -5 13 -10 5 -19 -7 -8 -6 -12 4 -12 17 0 14 26 -5 38 -12 7 -12 9
1 10 8 1 18 1 22 0 5 0 7 4 5 10 -1 6 5 14 13 17 8 2 12 1 8 -3 -4 -5 -3 -14
3 -21 7 -8 7 -14 -1 -19 -6 -3 -8 -10 -5 -15 7 -12 -84 -72 -97 -64 -6 4 -8 3
-5 -3 8 -12 -20 -38 -87 -82 -58 -38 -78 -35 -72 11 4 35 -25 85 -42 74 -5 -3
-16 0 -25 7 -12 9 -16 41 -21 142 -3 72 -8 150 -12 175 -5 34 -4 42 5 34 6 -6
13 -32 14 -57 1 -26 5 -47 10 -47 4 0 7 -47 7 -105 0 -71 4 -105 11 -105 15 0
6 263 -10 304 -15 36 -19 31 154 179 183 157 236 208 303 292 31 39 58 72 62
75 3 3 6 17 8 32 3 23 -5 32 -50 61 -98 62 -158 159 -158 255 0 66 20 111 71
156 91 83 221 127 360 123 85 -2 103 -6 162 -35z m-821 -128 c80 -27 162 -93
165 -133 1 -13 7 -29 13 -35 5 -5 10 -14 10 -19 0 -5 -23 12 -52 38 -44 40
-145 118 -228 178 -24 17 -24 17 -1 6 13 -6 55 -22 93 -35z m-257 -91 c36 -25
63 -48 61 -50 -2 -3 -35 17 -72 42 -81 56 -81 55 -66 55 7 0 41 -21 77 -47z
m-2672 25 c-13 -6 -23 -14 -23 -18 0 -5 -7 -10 -15 -14 -12 -4 -13 -2 -3 14
12 18 28 27 53 28 6 0 0 -4 -12 -10z m-79 -52 c-3 -9 -32 -33 -63 -53 -31 -20
-73 -50 -93 -66 -30 -23 -38 -25 -38 -12 0 19 36 54 77 75 15 8 37 23 48 33
11 10 30 20 42 23 13 4 23 11 23 17 0 6 2 8 5 5 3 -3 3 -13 -1 -22z m1588 -5
c13 -5 74 -16 136 -25 179 -26 368 -104 560 -228 155 -101 207 -151 269 -260
92 -164 136 -295 116 -353 -8 -25 -11 -23 -67 65 -61 95 -77 110 -51 46 21
-49 30 -152 18 -196 l-10 -35 -15 35 c-14 34 -15 33 -10 -46 4 -82 -9 -154
-30 -154 -5 0 -12 9 -15 20 -5 21 -19 27 -25 11 -3 -9 -226 10 -244 22 -6 3
-9 26 -6 55 2 30 -1 52 -7 56 -8 5 -11 -12 -11 -53 0 -60 0 -61 -28 -61 -50 0
-196 21 -224 32 -16 6 -28 15 -28 21 0 5 -8 3 -18 -6 -10 -10 -28 -17 -40 -17
-22 0 -22 2 -22 179 0 109 -4 182 -10 186 -7 4 -10 -58 -10 -179 l0 -185 -132
2 -133 2 -1 168 c-1 92 -4 170 -8 174 -3 3 -6 -73 -6 -170 l0 -177 -94 1 c-79
1 -96 4 -99 17 -4 13 -5 11 -6 -4 -1 -19 -9 -22 -86 -28 -47 -3 -165 -9 -263
-13 -173 -6 -180 -5 -200 15 l-21 21 -6 -29 c-6 -26 -12 -29 -69 -39 -34 -6
-74 -11 -87 -11 -34 0 -143 -24 -235 -51 -53 -16 -79 -19 -81 -12 -3 8 -12 7
-31 -3 -107 -55 -334 -144 -368 -144 -2 0 -4 31 -4 69 0 156 91 462 173 585
77 114 189 237 287 314 74 58 228 155 322 202 162 83 431 161 633 184 67 7
265 5 287 -3z m1608 -1 c0 -5 -5 -10 -11 -10 -5 0 -7 5 -4 10 3 6 8 10 11 10
2 0 4 -4 4 -10z m-3430 -159 c-16 -31 -32 -36 -18 -7 6 14 15 26 20 26 5 0 4
-9 -2 -19z m-855 -411 c10 -11 16 -20 13 -20 -3 0 -13 9 -23 20 -10 11 -16 20
-13 20 3 0 13 -9 23 -20z m-84 -17 c-12 -20 -14 -14 -5 12 4 9 9 14 11 11 3
-2 0 -13 -6 -23z m-21 -43 c-6 -11 -13 -20 -16 -20 -2 0 0 9 6 20 6 11 13 20
16 20 2 0 0 -9 -6 -20z m3922 -143 c34 -81 66 -205 74 -294 6 -59 4 -71 -10
-76 -9 -4 -16 -1 -16 5 0 7 -6 4 -13 -6 -10 -13 -21 -16 -55 -10 -38 6 -42 9
-42 35 0 15 5 31 10 34 6 3 10 -2 10 -12 0 -37 20 11 21 52 l1 40 13 -30 c13
-28 14 -26 15 50 0 74 -14 163 -39 243 -16 54 2 35 31 -31z m-3748 16 c-10
-16 -45 -80 -77 -143 -32 -63 -55 -106 -51 -95 4 11 21 60 38 110 21 62 40
100 63 122 40 40 52 42 27 6z m4881 -40 c19 -129 51 -218 93 -265 9 -11 11
-18 4 -18 -6 0 -21 18 -32 39 -21 42 -54 71 -81 71 -9 0 -22 14 -29 33 -7 17
-21 50 -31 72 l-18 40 34 33 c19 17 39 32 44 32 6 0 13 -17 16 -37z m222 -69
c-3 -3 -12 -4 -19 -1 -8 3 -5 6 6 6 11 1 17 -2 13 -5z m-5258 -210 c-27 -64
-99 -283 -99 -302 0 -9 -3 -13 -6 -10 -16 16 30 185 74 273 49 99 67 121 31
39z m262 -31 c-12 -20 -14 -14 -5 12 4 9 9 14 11 11 3 -2 0 -13 -6 -23z m3017
-20 c-10 -2 -26 -2 -35 0 -10 3 -2 5 17 5 19 0 27 -2 18 -5z m62 -3 c0 -5 -2
-10 -4 -10 -3 0 -8 5 -11 10 -3 6 -1 10 4 10 6 0 11 -4 11 -10z m183 -17 c-7
-2 -19 -2 -25 0 -7 3 -2 5 12 5 14 0 19 -2 13 -5z m-3302 -75 l-9 -33 -1 32
c-1 17 2 40 6 50 12 30 16 -9 4 -49z m4808 22 c0 -10 -3 -8 -9 5 -12 27 -12
43 0 25 5 -8 9 -22 9 -30z m24 -67 c20 -64 28 -103 23 -103 -5 0 -46 126 -46
141 0 21 9 6 23 -38z m-4899 -151 c-44 -129 -58 -155 -49 -92 6 48 13 74 54
190 23 67 26 72 29 42 2 -19 -12 -77 -34 -140z m5402 -83 c-6 -30 -14 -58 -19
-64 -4 -5 -15 -19 -23 -30 -15 -20 -15 -20 -5 1 24 49 41 112 42 154 1 38 2
41 9 19 4 -14 2 -50 -4 -80z m-468 66 c-3 -3 -9 2 -12 12 -6 14 -5 15 5 6 7
-7 10 -15 7 -18z m-5247 -180 c-20 -96 -39 -147 -26 -70 11 68 37 176 42 172
2 -3 -5 -48 -16 -102z m4209 20 c249 -10 594 -43 670 -64 27 -8 10 -9 -77 -7
-90 3 -110 1 -106 -10 3 -8 0 -14 -5 -14 -6 0 -13 8 -15 18 -3 9 -5 2 -6 -15
-1 -41 -21 -44 -21 -4 0 35 -10 38 -149 47 l-101 7 0 -24 0 -24 -13 24 c-11
23 -17 24 -122 27 -60 2 -158 6 -217 10 -105 6 -108 6 -108 -15 0 -12 -4 -21
-10 -21 -5 0 -10 9 -10 20 0 18 -7 20 -72 21 -40 1 -118 2 -173 3 -128 1 -391
-11 -405 -19 -5 -3 -10 -1 -10 4 0 7 -7 7 -20 -1 -17 -11 -22 -10 -31 2 -8 11
-12 12 -16 3 -5 -15 -49 -18 -57 -4 -7 11 -59 1 -69 -13 -4 -6 -5 -21 -2 -33
3 -13 1 -23 -5 -23 -5 0 -10 11 -10 25 0 23 -4 25 -40 25 -22 0 -40 5 -40 10
0 6 -11 10 -25 10 -14 0 -25 -4 -25 -10 0 -5 -9 -10 -20 -10 -11 0 -20 -7 -20
-16 0 -8 5 -12 10 -9 6 3 10 0 10 -8 0 -7 -7 -14 -15 -14 -9 0 -15 10 -15 24
0 15 -6 23 -18 23 -10 0 -22 4 -28 10 -9 9 -226 -15 -357 -40 -33 -6 -66 -9
-74 -5 -9 3 -25 -1 -37 -8 -28 -18 -66 -27 -66 -16 0 5 -7 9 -15 9 -23 0 -109
-31 -125 -46 -9 -7 -45 -28 -81 -47 -56 -28 -65 -31 -61 -15 4 16 1 17 -21 9
-35 -14 -111 -52 -117 -60 -11 -13 -102 -51 -111 -46 -10 7 -214 -79 -239
-100 -18 -15 -62 -27 -113 -30 -22 -2 -44 -10 -51 -20 -7 -10 -29 -18 -56 -20
-25 -2 -74 -11 -109 -20 -54 -14 -93 -16 -250 -10 -254 8 -253 8 -281 28 -13
9 -34 17 -45 17 -12 0 -26 5 -33 12 -9 9 -12 9 -12 0 0 -7 -6 -12 -12 -12 -7
0 -21 -14 -31 -31 -19 -35 -36 -34 -17 0 6 12 8 27 4 33 -4 7 -3 8 4 4 7 -4
12 -1 12 7 0 9 -28 28 -63 45 -35 16 -94 55 -131 87 -76 64 -100 66 -40 3 21
-22 33 -38 27 -34 -14 8 -14 10 -19 -59 -6 -74 -7 -75 -17 -75 -12 0 -164 120
-201 158 -26 28 -28 36 -24 82 3 28 7 52 9 54 10 8 392 46 466 46 46 0 83 4
85 10 2 6 109 23 238 40 129 16 256 32 282 36 38 5 53 3 75 -12 25 -17 49 -19
193 -20 91 0 177 -4 193 -8 45 -13 32 -34 -30 -46 -90 -18 -103 -22 -108 -30
-3 -5 20 -2 51 7 82 21 92 16 55 -31 -53 -67 -36 -59 56 27 61 56 100 74 177
83 67 8 94 1 76 -21 -21 -25 -8 -25 45 1 110 53 120 55 309 59 99 2 195 6 211
9 106 18 240 24 705 32 206 4 454 9 550 13 173 7 267 6 510 -4z m-620 -81 c0
-19 -4 -34 -10 -34 -5 0 -10 18 -10 41 0 24 4 38 10 34 6 -3 10 -22 10 -41z
m-1583 30 c-3 -3 -12 -4 -19 -1 -8 3 -5 6 6 6 11 1 17 -2 13 -5z m-130 -10
c-3 -3 -12 -4 -19 -1 -8 3 -5 6 6 6 11 1 17 -2 13 -5z m-130 -10 c-3 -3 -12
-4 -19 -1 -8 3 -5 6 6 6 11 1 17 -2 13 -5z m1873 -19 c0 -14 -4 -25 -10 -25
-5 0 -10 11 -10 25 0 14 5 25 10 25 6 0 10 -11 10 -25z m-690 0 c0 -8 -4 -15
-10 -15 -5 0 -10 7 -10 15 0 8 5 15 10 15 6 0 10 -7 10 -15z m167 -17 c-3 -7
-5 -2 -5 12 0 14 2 19 5 13 2 -7 2 -19 0 -25z m553 17 c0 -8 -4 -15 -10 -15
-5 0 -10 7 -10 15 0 8 5 15 10 15 6 0 10 -7 10 -15z m-500 -16 c0 -5 -9 -9
-20 -9 -19 0 -26 11 -14 23 8 8 34 -3 34 -14z m813 7 c3 -8 0 -17 -7 -19 -10
-4 -12 1 -9 14 6 23 9 24 16 5z m-1493 -39 c0 -10 -4 -15 -10 -12 -5 3 -10 18
-10 33 0 21 2 24 10 12 5 -8 10 -23 10 -33z m100 26 c0 -15 2 -16 10 -3 5 8
12 11 17 7 4 -5 1 -12 -7 -17 -22 -14 -27 -12 -33 10 -3 11 -1 20 4 20 5 0 9
-8 9 -17z m1360 2 c0 -8 -4 -15 -10 -15 -5 0 -10 7 -10 15 0 8 5 15 10 15 6 0
10 -7 10 -15z m360 -11 c0 -8 -4 -14 -10 -14 -5 0 -10 9 -10 21 0 11 5 17 10
14 6 -3 10 -13 10 -21z m70 11 c0 -8 -4 -15 -10 -15 -5 0 -10 7 -10 15 0 8 5
15 10 15 6 0 10 -7 10 -15z m757 -22 c-3 -10 -5 -4 -5 12 0 17 2 24 5 18 2 -7
2 -21 0 -30z m166 12 c8 -8 17 -11 21 -8 3 4 6 -7 5 -23 0 -25 -2 -26 -9 -9
-7 17 -9 17 -9 3 -2 -31 -21 -20 -21 11 0 16 -6 32 -12 34 -9 4 -10 6 -1 6 6
1 18 -6 26 -14z m-393 -25 c0 -16 -4 -30 -8 -30 -4 0 -7 12 -6 28 3 32 3 32 9
32 3 0 5 -13 5 -30z m200 14 c0 -8 -4 -12 -10 -9 -5 3 -10 10 -10 16 0 5 5 9
10 9 6 0 10 -7 10 -16z m80 -14 c0 -11 -4 -20 -8 -20 -4 0 -8 9 -9 20 -1 11 2
20 8 20 5 0 9 -9 9 -20z m170 11 c0 -6 -4 -13 -10 -16 -5 -3 -10 1 -10 9 0 9
5 16 10 16 6 0 10 -4 10 -9z m-913 -7 c-3 -3 -12 -4 -19 -1 -8 3 -5 6 6 6 11
1 17 -2 13 -5z m493 -3 c0 -6 -4 -13 -10 -16 -5 -3 -10 1 -10 9 0 9 5 16 10
16 6 0 10 -4 10 -9z m-1916 -46 c-4 -8 -1 -15 6 -15 6 0 8 -5 4 -12 -5 -7 -3
-8 6 -3 9 5 10 2 6 -12 -4 -14 2 -25 24 -41 33 -25 40 -27 40 -11 0 5 -13 15
-30 20 -16 6 -30 15 -30 20 0 6 9 5 21 -2 13 -7 19 -7 15 -1 -3 6 -2 13 4 17
5 3 10 0 10 -8 0 -8 7 -21 17 -28 15 -13 15 -12 2 10 -11 18 -11 25 -1 28 6 3
12 11 12 18 0 16 -27 28 -35 15 -4 -6 0 -10 7 -11 7 0 3 -5 -9 -11 -17 -8 -26
-8 -38 2 -20 16 -19 40 1 40 10 0 14 -6 11 -15 -4 -8 -1 -17 6 -21 7 -4 9 -4
5 1 -4 4 -1 14 7 22 11 10 19 11 34 4 11 -6 21 -8 24 -3 2 4 3 2 1 -3 -1 -6 6
-11 15 -12 20 -1 100 -3 126 -3 95 0 158 -2 148 -7 -25 -9 -13 -21 20 -18 17
2 34 4 37 5 3 1 9 2 13 1 5 -1 6 3 2 9 -4 6 13 10 46 10 37 0 56 -5 66 -17 7
-10 12 -13 11 -6 -2 6 -1 12 2 14 5 2 215 -11 255 -16 11 -1 37 -3 57 -4 28
-1 36 -5 32 -15 -4 -11 0 -13 15 -9 12 3 21 9 21 14 0 5 10 7 23 5 12 -3 33
-5 46 -5 19 -1 22 -5 18 -23 l-6 -23 20 24 19 23 0 -25 c0 -14 -5 -29 -11 -32
-6 -5 -4 -11 7 -19 25 -19 44 -166 44 -353 0 -177 -18 -331 -52 -441 -60 -194
-208 -396 -345 -470 -47 -25 -52 -30 -33 -35 12 -3 19 -3 16 0 -3 4 20 20 51
36 32 16 83 50 113 75 l55 46 -40 -43 c-83 -89 -270 -197 -391 -227 -38 -9
-91 -24 -119 -34 -27 -9 -59 -20 -70 -24 -11 -4 -8 0 8 9 39 23 33 26 -13 8
-22 -9 -39 -18 -36 -20 2 -2 29 -8 61 -13 69 -11 78 -19 77 -60 -2 -69 -16
-79 -189 -135 -157 -51 -333 -68 -667 -63 -260 4 -276 5 -389 33 -108 27 -120
32 -134 59 -31 59 17 134 72 112 17 -6 65 13 65 26 0 12 -10 10 -26 -7 -9 -8
-20 -15 -25 -15 -14 0 -11 28 4 33 6 2 2 2 -11 0 -13 -2 -28 0 -35 4 -7 4 -47
13 -89 19 -77 11 -164 46 -246 98 -24 15 -41 30 -39 33 3 3 18 -4 34 -15 32
-22 149 -82 160 -82 4 0 -28 20 -72 43 -44 24 -93 52 -110 63 -16 10 -26 13
-22 7 5 -7 4 -13 -1 -13 -13 0 -33 25 -26 32 3 3 0 9 -7 14 -8 4 -10 3 -5 -4
11 -18 -10 -14 -25 5 -10 11 -10 14 -1 9 18 -11 15 -1 -5 15 -11 10 -14 10 -9
2 4 -7 3 -13 -2 -13 -14 0 -33 26 -24 34 4 4 0 6 -8 4 -8 -1 -14 2 -13 9 2 7
-3 10 -10 8 -6 -3 -37 20 -67 51 l-55 56 70 -38 c39 -21 72 -41 75 -44 3 -4
17 -10 32 -13 14 -4 34 -10 45 -13 10 -3 -27 20 -82 52 -172 100 -262 214
-286 365 -7 41 -13 149 -13 241 -1 99 -5 168 -10 168 -6 0 -6 3 0 9 13 14 274
121 274 113 0 -10 20 21 20 31 0 5 -4 5 -10 2 -5 -3 -10 -2 -10 2 0 5 12 13
28 19 l27 10 -25 -51 c-21 -43 -28 -51 -42 -43 -14 6 -16 5 -12 -7 4 -11 2
-13 -9 -9 -8 3 -18 1 -21 -4 -3 -5 8 -8 25 -6 26 3 30 1 23 -14 -4 -9 -9 -64
-11 -122 -4 -91 -1 -115 20 -181 25 -79 75 -165 124 -211 70 -67 229 -138 308
-138 19 0 37 -5 41 -12 5 -8 -23 -10 -112 -5 -88 4 -111 3 -89 -5 47 -16 322
-16 370 1 227 79 353 208 386 395 29 172 -52 351 -209 460 -51 35 -69 53 -65
65 4 13 3 13 -5 2 -8 -12 -15 -12 -40 -2 -20 8 -29 18 -25 27 3 9 -1 14 -12
14 -10 0 -13 -5 -9 -12 5 -8 2 -9 -12 -4 -10 5 -39 14 -64 20 l-44 12 44 18
c25 10 57 18 73 18 15 0 27 3 27 7 0 4 17 13 37 19 27 8 40 8 50 0 11 -9 13
-8 11 2 -2 8 16 17 50 25 42 10 50 10 42 0 -8 -10 -5 -13 14 -11 18 1 22 4 14
13 -7 9 -3 13 14 17 12 3 35 7 51 11 15 3 27 1 27 -5 0 -16 27 -12 34 5 3 9
18 15 40 15 19 0 38 5 42 11 5 8 -1 10 -20 7 -14 -3 -26 -1 -26 3 0 5 16 9 36
9 32 0 35 -2 24 -15 -7 -9 -10 -19 -6 -22 7 -7 21 9 29 32 2 5 30 11 63 12 32
0 79 4 103 9 38 6 43 5 38 -9 -4 -12 -2 -14 11 -9 16 6 16 4 -1 -21 -9 -15
-15 -27 -12 -27 3 0 7 0 10 0 3 0 4 1 3 3 -1 1 4 12 10 24 9 17 9 24 0 29 -9
6 -5 10 12 15 43 12 60 10 54 -6z m224 8 c-16 -2 -40 -2 -55 0 -16 2 -3 4 27
4 30 0 43 -2 28 -4z m115 0 c-13 -2 -33 -2 -45 0 -13 2 -3 4 22 4 25 0 35 -2
23 -4z m145 0 c-21 -2 -57 -2 -80 0 -24 2 -7 4 37 4 44 0 63 -2 43 -4z m352
-3 c37 -6 30 -8 -45 -8 -49 0 -128 3 -175 7 -84 8 -83 8 45 8 72 1 150 -3 175
-7z m218 -15 c3 -3 -31 -5 -76 -5 -44 0 -83 4 -86 8 -5 9 154 5 162 -3z m42
-6 c0 -5 -4 -9 -10 -9 -5 0 -10 7 -10 16 0 8 5 12 10 9 6 -3 10 -10 10 -16z
m-635 -9 c-3 -5 -10 -10 -16 -10 -5 0 -9 5 -9 10 0 6 7 10 16 10 8 0 12 -4 9
-10z m-895 -9 c-19 -5 -66 -14 -105 -20 -38 -7 -92 -19 -119 -27 -27 -8 -57
-14 -65 -14 -69 2 193 63 283 67 l41 1 -35 -7z m2207 -7 c-3 -3 -12 -4 -19 -1
-8 3 -5 6 6 6 11 1 17 -2 13 -5z m-2773 -51 c4 -9 1 -13 -6 -10 -7 2 -18 -3
-25 -12 -14 -19 -19 -15 -28 20 -6 24 -4 25 24 21 16 -2 32 -11 35 -19z m31
18 c3 -5 1 -12 -5 -16 -5 -3 -10 1 -10 9 0 18 6 21 15 7z m195 -36 c-46 -18
-74 -17 -35 0 17 8 39 14 50 14 13 0 8 -5 -15 -14z m3247 -17 c-3 -7 -5 -2 -5
12 0 14 2 19 5 13 2 -7 2 -19 0 -25z m-3327 -2 c0 -2 -21 -11 -47 -20 -51 -17
-51 -8 0 11 35 13 47 15 47 9z m2097 -103 c9 -81 14 -100 33 -115 23 -18 23
-20 12 -126 -21 -207 -63 -361 -144 -535 -54 -113 -71 -135 -38 -50 31 83 58
197 75 316 16 116 21 399 9 534 -7 73 -7 73 18 73 24 0 25 -3 35 -97z m-3854
-1 c-7 -29 -43 -95 -49 -89 -2 1 4 33 13 70 13 53 19 65 30 56 8 -7 10 -21 6
-37z m5066 -177 c-6 -22 -15 -51 -19 -65 -5 -16 -8 12 -9 74 -1 54 -4 109 -7
123 -5 17 0 31 17 49 l24 26 3 -84 c2 -45 -2 -101 -9 -123z m-5019 170 c0 -8
-4 -15 -10 -15 -5 0 -10 7 -10 15 0 8 5 15 10 15 6 0 10 -7 10 -15z m1076 -35
c22 0 16 -14 -10 -26 -20 -9 -26 -9 -30 3 -10 25 -7 35 10 29 9 -3 22 -6 30
-6z m-1556 -87 c0 -78 -10 -93 -17 -25 -4 37 4 102 12 102 3 0 5 -34 5 -77z
m540 68 c0 -5 -7 -14 -15 -21 -16 -14 -18 -10 -9 14 6 17 24 22 24 7z m-50
-20 c0 -5 -7 -14 -15 -21 -16 -14 -18 -10 -9 14 6 17 24 22 24 7z m738 -66 c1
-14 -3 -25 -8 -25 -6 0 -10 11 -10 25 0 14 4 25 8 25 4 0 9 -11 10 -25z m4226
-260 c-5 -182 -9 -219 -29 -280 -45 -135 -75 -241 -86 -300 -10 -58 -55 -152
-66 -141 -3 3 -19 -20 -36 -52 -16 -31 -34 -61 -39 -67 -6 -5 19 49 55 120 67
134 118 288 156 467 23 108 26 142 11 133 -6 -4 -8 5 -5 22 15 89 25 196 26
281 1 79 3 90 10 62 5 -20 7 -127 3 -245z m-4443 192 c-8 -8 -11 2 -10 34 l1
44 10 -34 c6 -23 6 -37 -1 -44z m182 53 c3 -11 1 -20 -4 -20 -5 0 -9 9 -9 20
0 11 2 20 4 20 2 0 6 -9 9 -20z m387 5 c0 -10 -224 -95 -249 -94 -9 0 25 15
74 34 50 18 106 40 125 49 37 16 50 19 50 11z m-650 -40 c0 -8 -4 -15 -10 -15
-5 0 -10 7 -10 15 0 8 5 15 10 15 6 0 10 -7 10 -15z m-30 -10 c0 -8 -4 -15
-10 -15 -5 0 -7 7 -4 15 4 8 8 15 10 15 2 0 4 -7 4 -15z m-30 -10 c0 -8 -4
-15 -10 -15 -5 0 -10 7 -10 15 0 8 5 15 10 15 6 0 10 -7 10 -15z m-1117 -65
c3 -11 1 -18 -4 -14 -5 3 -9 12 -9 20 0 20 7 17 13 -6z m474 13 c-4 -3 -33
-10 -64 -14 -36 -5 -62 -14 -70 -25 -12 -16 -13 -16 -13 -2 0 22 11 28 68 38
63 10 87 11 79 3z m1033 -87 c0 -51 3 -122 6 -157 4 -46 2 -59 -5 -48 -10 15
-13 32 -29 144 -4 28 -11 56 -15 62 -6 9 -3 11 10 6 17 -6 17 -5 1 14 -32 36
-22 65 25 72 4 0 7 -41 7 -93z m3987 -3 c-13 -178 -52 -377 -68 -351 -12 18
-11 66 1 73 6 3 10 18 10 33 0 35 52 332 58 332 3 0 2 -39 -1 -87z m-5170 5
c-3 -8 -6 -5 -6 6 -1 11 2 17 5 13 3 -3 4 -12 1 -19z m-197 -118 c0 -5 -4 -10
-9 -10 -4 0 -30 -19 -56 -42 -30 -27 -44 -34 -37 -21 12 22 81 83 94 83 5 0 8
-4 8 -10z m2681 -52 c-24 -114 -94 -219 -174 -259 -21 -11 -41 -18 -43 -16 -3
2 9 10 25 17 72 29 162 160 183 266 6 30 13 52 15 50 3 -2 0 -28 -6 -58z
m3166 40 c-3 -8 -6 -5 -6 6 -1 11 2 17 5 13 3 -3 4 -12 1 -19z m-62 -18 c10
-11 16 -20 13 -20 -3 0 -13 9 -23 20 -10 11 -16 20 -13 20 3 0 13 -9 23 -20z
m65 -6 c0 -2 -7 -4 -15 -4 -8 0 -15 4 -15 10 0 5 7 7 15 4 8 -4 15 -8 15 -10z
m-3226 -51 c-12 -51 -42 -99 -88 -141 -62 -57 -66 -53 -7 6 28 28 57 70 71
105 26 62 34 73 24 30z m3199 -68 c-3 -9 -8 -14 -10 -11 -3 3 -2 9 2 15 9 16
15 13 8 -4z m-538 -173 c-5 -21 -8 -23 -16 -11 -9 14 -3 64 10 84 9 14 14 -43
6 -73z m-5332 -57 c-7 -21 -13 -19 -13 6 0 11 4 18 10 14 5 -3 7 -12 3 -20z
m5291 -55 c-10 -28 -22 -50 -26 -50 -11 0 -10 18 2 25 6 3 10 17 10 31 0 31
21 75 28 56 2 -7 -4 -35 -14 -62z m-3723 -75 c44 -63 51 -75 45 -75 -6 0 -81
110 -101 150 -8 15 -11 30 -8 34 4 3 12 -8 18 -26 6 -18 27 -55 46 -83z m3680
-22 c-12 -20 -14 -14 -5 12 4 9 9 14 11 11 3 -2 0 -13 -6 -23z m499 -98 c0 -8
-4 -15 -10 -15 -5 0 -7 7 -4 15 4 8 8 15 10 15 2 0 4 -7 4 -15z m-1636 -91
c-89 -106 -87 -103 -65 -101 11 0 18 4 15 8 -2 4 2 12 10 18 8 7 16 8 18 4 3
-4 4 -3 2 3 -3 15 40 56 50 47 4 -4 4 1 0 12 -6 14 -4 17 9 12 11 -4 14 -2 11
7 -10 25 15 27 45 5 28 -21 29 -23 14 -45 -8 -13 -20 -21 -26 -17 -6 4 -7 1
-2 -7 6 -10 14 -7 30 14 l23 28 167 -138 c92 -77 215 -176 274 -221 58 -46
153 -120 209 -165 123 -99 164 -128 175 -128 4 0 32 22 60 49 86 81 125 96
242 96 88 0 107 -3 157 -27 88 -41 135 -84 169 -154 26 -53 31 -75 32 -136 0
-128 -52 -253 -136 -319 -57 -46 -135 -80 -185 -81 -54 -1 -95 9 -87 23 3 5 0
6 -7 4 -23 -9 -124 91 -154 151 -15 30 -29 53 -31 50 -3 -2 0 -29 7 -59 12
-60 61 -149 114 -207 49 -54 58 -141 25 -247 -7 -22 -15 -30 -25 -26 -13 5
-12 8 2 24 9 11 15 19 12 19 -2 0 -15 -12 -29 -27 -13 -14 -18 -23 -11 -19 15
9 16 -10 1 -20 -6 -3 -15 0 -21 7 -7 11 -8 9 -6 -6 2 -14 -11 -29 -45 -52 -64
-43 -136 -63 -216 -61 l-66 1 60 7 c59 7 59 7 -15 5 -41 -1 -86 1 -100 6 l-25
9 23 -19 c46 -39 209 -41 294 -3 26 11 70 42 98 68 27 26 50 42 50 37 0 -17
-94 -100 -140 -123 -23 -12 -48 -19 -56 -16 -8 3 -13 2 -9 -3 11 -18 -72 -22
-144 -7 -91 19 -147 51 -234 135 -115 111 -173 268 -137 376 14 43 71 110 111
131 32 16 106 19 143 4 14 -5 26 -6 26 -1 0 5 -33 23 -72 41 -40 18 -73 31
-73 29 0 -1 -10 3 -22 10 -13 6 -23 17 -23 24 0 7 4 6 10 -3 5 -8 10 -10 10
-4 0 16 -65 75 -74 67 -4 -4 -4 0 -1 8 3 9 -3 23 -16 35 l-22 19 12 -25 12
-25 -20 25 c-10 13 -17 29 -14 35 4 5 3 7 -2 3 -4 -4 -40 23 -79 60 -39 37
-100 89 -136 116 -88 66 -150 127 -143 139 3 6 1 7 -5 3 -6 -3 -35 14 -64 40
-81 70 -267 264 -258 269 11 7 111 -85 104 -96 -3 -5 0 -8 8 -7 7 2 12 -3 10
-10 -1 -8 2 -11 9 -7 14 9 121 -94 112 -108 -3 -6 -1 -7 5 -3 13 8 124 -92
116 -105 -3 -5 1 -7 8 -4 7 2 74 -54 148 -124 74 -71 137 -127 140 -124 5 4
-144 153 -375 373 -71 68 -129 128 -127 133 1 4 -1 6 -6 3 -5 -3 -32 18 -60
47 l-52 53 44 37 c50 42 69 48 40 15 l-19 -23 22 19 c12 10 21 23 20 30 -1 6
6 10 15 10 10 -1 16 1 15 5 -2 9 126 150 132 145 2 -2 -14 -24 -35 -50z
m-2324 -60 c58 -59 99 -103 91 -99 -10 6 -12 4 -7 -4 4 -6 12 -9 17 -5 13 8
40 -16 32 -29 -3 -5 -2 -7 4 -4 5 3 29 -7 53 -23 34 -22 40 -31 28 -35 -21 -8
-61 13 -52 27 5 7 2 8 -5 4 -15 -10 -53 23 -44 37 3 6 1 7 -5 3 -14 -8 -152
111 -149 128 1 6 -3 10 -10 9 -6 -1 -25 13 -42 32 -17 19 -33 35 -36 35 -7 0
-1 -32 8 -47 13 -20 -13 -25 -41 -8 l-27 16 24 -20 c13 -12 20 -21 17 -21 -4
0 1 -11 10 -25 9 -14 20 -25 24 -25 13 0 4 35 -8 36 -25 3 -26 5 -8 15 14 9
20 8 27 -2 13 -20 11 -2 -2 24 -6 12 36 -25 94 -82 58 -58 104 -108 102 -111
-2 -4 2 -7 9 -7 7 0 27 -10 44 -23 39 -29 27 -52 -12 -26 -14 9 -29 16 -33 16
-4 0 4 -8 19 -18 l28 -18 -50 -37 c-52 -39 -66 -45 -54 -24 4 7 3 9 -2 4 -5
-5 -9 -14 -9 -20 0 -7 -8 -11 -17 -11 -10 1 -16 -2 -15 -6 1 -4 -40 -44 -90
-88 -51 -44 -134 -118 -184 -164 -50 -45 -95 -82 -101 -80 -5 1 -7 -1 -4 -6 3
-5 -11 -22 -32 -38 -20 -15 -90 -80 -154 -143 -65 -63 -118 -110 -118 -103 0
6 9 17 20 24 11 7 20 17 20 21 0 12 27 37 33 31 3 -3 8 0 13 7 4 8 3 10 -4 5
-7 -4 -12 -2 -12 3 0 6 3 11 8 11 4 0 37 29 74 64 36 36 69 62 72 59 3 -4 6 2
6 11 0 12 5 16 15 13 8 -4 17 -1 21 5 4 6 3 8 -4 4 -5 -3 -12 -2 -14 3 -4 12
-208 -183 -234 -223 -10 -17 -19 -42 -20 -56 -1 -22 6 -29 43 -44 100 -41 145
-109 145 -215 -1 -36 -7 -85 -16 -108 -19 -53 -95 -168 -139 -211 -31 -30 -37
-32 -57 -22 -18 10 -21 9 -15 -1 6 -8 4 -11 -7 -7 -8 4 -21 2 -29 -3 -9 -6 -1
-7 24 -4 20 2 37 2 37 0 0 -2 -20 -16 -45 -31 -58 -34 -155 -64 -206 -64 -50
0 -155 42 -202 81 -47 39 -49 59 -2 24 19 -15 38 -25 43 -23 4 1 -13 17 -40
35 -27 17 -46 28 -43 22 4 -5 1 -9 -4 -9 -6 0 -11 5 -11 10 0 6 -10 25 -22 41
-20 27 -23 43 -23 134 l0 103 39 56 c51 74 106 122 180 158 l61 29 -42 -5
c-58 -6 -151 -50 -195 -93 -22 -22 -41 -32 -49 -28 -8 5 -10 4 -5 -3 11 -18
-49 -42 -107 -42 -42 0 -69 7 -113 31 -33 16 -66 38 -74 47 -14 15 -13 15 5 1
18 -13 19 -13 6 3 -7 10 -17 16 -21 13 -19 -12 -96 92 -126 170 -13 35 -19 75
-19 135 0 98 11 124 78 190 176 170 403 184 519 32 43 -56 77 -127 78 -159 0
-13 5 -23 10 -23 6 0 10 15 10 33 0 82 44 145 139 200 l31 18 -10 -27 c-16
-42 -6 -38 26 10 33 50 102 114 393 365 199 171 321 270 331 271 3 0 53 -48
110 -106z m3840 76 c6 -11 8 -20 6 -20 -3 0 -10 9 -16 20 -6 11 -8 20 -6 20 3
0 10 -9 16 -20z m-5460 -60 c0 -5 -2 -10 -4 -10 -3 0 -8 5 -11 10 -3 6 -1 10
4 10 6 0 11 -4 11 -10z m304 -105 c51 -96 50 -99 -6 -19 -20 28 -39 66 -43 85
-9 44 -7 41 49 -66z m4886 78 c0 -5 -10 -19 -21 -33 l-20 -25 16 33 c15 30 25
41 25 25z m-35 -124 c-14 -35 -43 -82 -64 -104 -22 -22 -55 -65 -74 -95 -31
-50 -47 -81 -93 -187 -15 -35 -34 -42 -53 -19 -10 12 -2 29 43 88 30 40 80
114 111 163 63 102 148 224 153 220 2 -2 -9 -31 -23 -66z m-1569 -65 c-42 -29
-46 -29 -46 -5 0 12 10 23 28 29 46 15 56 2 18 -24z m-1573 -36 c2 -18 3 -35
1 -36 -6 -8 -103 51 -98 59 3 5 25 9 48 9 42 0 44 -2 49 -32z m3388 -1 c-10
-9 -11 -8 -5 6 3 10 9 15 12 12 3 -3 0 -11 -7 -18z m-5281 -21 c0 -3 -4 -8
-10 -11 -5 -3 -10 -1 -10 4 0 6 5 11 10 11 6 0 10 -2 10 -4z m346 -100 c79
-119 84 -126 122 -174 19 -23 32 -42 29 -42 -2 0 -34 30 -70 68 -51 51 -78 89
-113 162 -53 110 -49 108 32 -14z m-333 49 c-3 -9 -8 -14 -10 -11 -3 3 -2 9 2
15 9 16 15 13 8 -4z m15 -50 c-3 -3 -9 2 -12 12 -6 14 -5 15 5 6 7 -7 10 -15
7 -18z m3363 -57 c59 -65 64 -113 13 -136 -41 -19 -82 -15 -98 11 -46 70 -51
149 -9 160 42 11 57 5 94 -35z m-1341 4 c22 -18 22 -18 6 -98 -23 -112 -56
-135 -125 -85 -14 9 -29 29 -34 44 -7 23 -3 36 27 82 52 78 83 92 126 57z
m1162 -29 c32 -38 68 -113 68 -142 0 -40 -37 -65 -98 -65 -41 -1 -48 2 -60 27
-16 34 -27 161 -12 152 6 -4 7 1 3 11 -5 14 -3 16 11 11 9 -4 14 -3 11 2 -5 9
14 18 46 20 9 0 23 -7 31 -16z m-986 -19 c8 -9 7 -34 -3 -86 -26 -139 -23
-133 -76 -132 -53 0 -87 24 -87 61 0 33 57 139 88 163 27 21 58 19 78 -6z
m774 -3 c0 -5 -13 -12 -30 -16 -32 -7 -70 -48 -69 -74 0 -9 5 -3 11 13 14 39
84 71 113 52 48 -32 90 -139 69 -174 -15 -24 -62 -45 -114 -50 -66 -6 -80 14
-86 119 -6 98 4 118 63 129 21 4 39 8 41 9 1 0 2 -3 2 -8z m-597 -19 c13 -14
14 -31 8 -102 -8 -91 -20 -123 -51 -140 -43 -23 -102 -3 -120 41 -11 24 -8 40
16 106 15 43 34 86 42 96 20 23 84 23 105 -1z m195 1 c18 -15 22 -33 26 -117
7 -135 -4 -156 -86 -156 -68 0 -101 30 -100 91 1 25 6 58 12 73 5 15 10 38 10
52 0 60 91 97 138 57z m446 1 c24 -24 19 -30 -6 -8 -13 10 -25 20 -27 21 -2 2
1 3 7 3 6 0 18 -7 26 -16z m-240 -5 c13 -7 30 -24 36 -38 16 -40 29 -173 18
-194 -20 -40 -125 -51 -168 -17 -24 18 -25 24 -25 120 0 95 2 103 24 121 26
21 77 25 115 8z m931 -117 c-3 -3 -11 0 -18 7 -9 10 -8 11 6 5 10 -3 15 -9 12
-12z m-426 -112 c32 -17 57 -112 42 -154 -6 -14 -26 -30 -50 -40 -53 -20 -61
-20 -91 5 -14 11 -18 17 -10 13 13 -6 12 -4 -1 12 -24 29 -41 79 -37 110 5 48
97 81 147 54z m184 -49 c7 -7 4 -19 -7 -35 -20 -31 -62 -35 -83 -8 -8 9 -12
11 -8 5 3 -7 4 -13 1 -13 -8 0 -46 77 -46 94 0 12 12 11 67 -9 36 -14 71 -29
76 -34z m-1527 0 c-5 -50 -32 -107 -64 -131 -24 -20 -25 -20 -63 2 -22 12 -40
25 -40 30 -1 4 -2 12 -3 17 0 5 -4 13 -8 17 -24 24 20 66 47 44 10 -8 15 -8
21 1 4 7 3 9 -4 5 -6 -3 -13 -2 -17 4 -3 5 7 12 22 16 15 3 46 12 68 20 22 7
41 13 42 14 2 0 1 -17 -1 -39z m169 10 c27 -16 30 -22 30 -67 -1 -49 -23 -113
-53 -146 -22 -26 -96 -24 -122 2 -35 35 -24 174 19 223 19 22 78 17 126 -12z
m1750 11 c-3 -3 -11 0 -18 7 -9 10 -8 11 6 5 10 -3 15 -9 12 -12z m-771 -42
c16 -16 24 -39 43 -131 11 -56 -44 -99 -125 -99 -39 0 -92 35 -92 60 0 16 9
12 37 -17 19 -21 17 -18 -5 13 -39 51 -47 84 -32 129 22 67 124 94 174 45z
m-814 -1 c70 -15 84 -37 69 -111 -22 -108 -70 -160 -133 -144 -42 10 -66 41
-66 85 0 55 21 143 38 164 18 20 25 21 92 6z m281 -36 c30 -18 49 -63 49 -113
0 -31 -21 -92 -38 -113 -18 -21 -79 -30 -131 -18 -65 14 -75 28 -72 107 3 108
39 154 119 154 24 0 57 -8 73 -17z m296 -5 c30 -34 35 -56 27 -117 -9 -71 -41
-106 -107 -116 -26 -4 -58 -4 -72 -1 -35 9 -57 58 -59 132 -1 53 3 66 23 88
26 28 43 33 117 35 41 1 54 -3 71 -21z m1458 -76 c-6 -7 -35 18 -35 31 0 5 9
2 20 -8 11 -10 18 -20 15 -23z m-790 4 c24 -18 34 -100 23 -208 -8 -84 -42
-198 -60 -198 -5 0 -7 -4 -4 -9 10 -16 -72 -127 -143 -194 -304 -287 -831
-336 -1241 -116 -95 51 -142 87 -134 101 5 7 2 8 -5 4 -15 -10 -53 23 -44 37
3 5 1 7 -5 4 -23 -15 -112 119 -166 247 l-16 39 22 -19 23 -19 -21 25 c-34 40
-41 60 -54 148 -10 66 -10 85 1 98 32 38 45 37 144 -16 227 -123 452 -167 809
-157 319 8 433 39 729 195 106 57 114 59 142 38z m420 -56 c3 -6 -1 -7 -9 -4
-18 7 -21 14 -7 14 6 0 13 -4 16 -10z m363 -9 c10 -6 4 -14 -22 -29 -39 -23
-93 -92 -103 -131 -8 -36 -19 -48 -50 -56 -15 -3 -39 -15 -53 -25 l-27 -19 -1
48 -1 48 82 56 c45 31 98 69 117 86 39 34 40 34 58 22z m-3293 -87 c33 -25 90
-63 128 -85 59 -35 67 -44 67 -69 0 -17 -2 -30 -5 -30 -2 0 -20 11 -39 24 -19
13 -57 27 -83 31 -57 8 -70 15 -52 25 22 14 -33 83 -100 126 -33 22 -60 42
-60 46 -2 16 36 13 59 -4 14 -11 52 -39 85 -64z m255 -118 c0 -3 -4 -8 -10
-11 -5 -3 -10 -1 -10 4 0 6 5 11 10 11 6 0 10 -2 10 -4z m2718 -51 c-3 -3 -9
2 -12 12 -6 14 -5 15 5 6 7 -7 10 -15 7 -18z m-2810 -60 c-3 -3 -9 2 -12 12
-6 14 -5 15 5 6 7 -7 10 -15 7 -18z m2227 -360 c22 -21 24 -27 13 -52 -24 -55
-49 -83 -88 -94 -51 -15 -86 -5 -105 31 -25 47 -18 62 43 102 68 44 104 47
137 13z"/>
<path d="M1405 6130 c11 -5 27 -9 35 -9 9 0 8 4 -5 9 -11 5 -27 9 -35 9 -9 0
-8 -4 5 -9z"/>
<path d="M989 6041 c-24 -21 -52 -54 -62 -72 l-19 -34 29 35 c36 45 54 62 83
83 13 9 21 19 18 22 -3 3 -25 -12 -49 -34z"/>
<path d="M1140 6029 c0 -5 5 -7 10 -4 6 3 10 8 10 11 0 2 -4 4 -10 4 -5 0 -10
-5 -10 -11z"/>
<path d="M1175 6030 c-3 -5 -1 -10 4 -10 6 0 11 5 11 10 0 6 -2 10 -4 10 -3 0
-8 -4 -11 -10z"/>
<path d="M1590 6010 c6 -11 13 -20 16 -20 2 0 0 9 -6 20 -6 11 -13 20 -16 20
-2 0 0 -9 6 -20z"/>
<path d="M900 5891 c-13 -25 -13 -98 0 -106 6 -4 7 5 4 23 -3 16 -1 45 4 65
11 41 8 47 -8 18z"/>
<path d="M1149 5160 c30 -27 64 -53 75 -56 12 -4 33 -15 49 -26 15 -11 27 -17
27 -15 0 3 -46 37 -102 76 -100 69 -101 70 -49 21z"/>
<path d="M831 5156 c-9 -11 -9 -16 0 -22 7 -4 9 -3 5 4 -3 5 0 12 6 15 7 2 10
7 7 11 -3 4 -12 0 -18 -8z"/>
<path d="M1740 5136 c0 -2 7 -9 15 -16 9 -7 15 -8 15 -2 0 5 -7 12 -15 16 -8
3 -15 4 -15 2z"/>
<path d="M1310 5056 c0 -2 8 -10 18 -17 15 -13 16 -12 3 4 -13 16 -21 21 -21
13z"/>
<path d="M1975 5024 c-19 -20 -50 -79 -37 -70 6 3 13 0 16 -6 3 -7 4 -4 1 8
-6 23 31 78 46 69 5 -4 9 -1 9 4 0 16 -16 13 -35 -5z"/>
<path d="M1360 5016 c0 -2 8 -10 18 -17 15 -13 16 -12 3 4 -13 16 -21 21 -21
13z"/>
<path d="M1410 4976 c0 -2 8 -10 18 -17 15 -13 16 -12 3 4 -13 16 -21 21 -21
13z"/>
<path d="M1980 4949 c0 -5 5 -7 10 -4 6 3 10 8 10 11 0 2 -4 4 -10 4 -5 0 -10
-5 -10 -11z"/>
<path d="M1872 4905 c-17 -37 -14 -45 4 -12 9 16 14 31 11 33 -2 2 -9 -7 -15
-21z"/>
<path d="M1490 4916 c0 -2 8 -10 18 -17 15 -13 16 -12 3 4 -13 16 -21 21 -21
13z"/>
<path d="M1901 4894 c-9 -21 -9 -30 0 -38 9 -8 10 -8 5 1 -4 7 -2 22 4 34 7
11 10 23 7 25 -2 2 -9 -8 -16 -22z"/>
<path d="M1570 4856 c0 -2 8 -10 18 -17 15 -13 16 -12 3 4 -13 16 -21 21 -21
13z"/>
<path d="M1872 4813 c-15 -48 -8 -55 8 -8 7 20 10 38 8 41 -3 2 -10 -13 -16
-33z"/>
<path d="M1610 4826 c0 -2 8 -10 18 -17 15 -13 16 -12 3 4 -13 16 -21 21 -21
13z"/>
<path d="M1892 4750 c0 -14 2 -19 5 -12 2 6 2 18 0 25 -3 6 -5 1 -5 -13z"/>
<path d="M1850 4756 c0 -2 8 -10 18 -17 15 -13 16 -12 3 4 -13 16 -21 21 -21
13z"/>
<path d="M1677 4739 c7 -7 15 -10 18 -7 3 3 -2 9 -12 12 -14 6 -15 5 -6 -5z"/>
<path d="M1685 4710 c3 -5 15 -15 27 -21 15 -8 19 -8 14 0 -12 18 2 13 44 -18
22 -16 36 -31 30 -34 -6 -3 -5 -4 2 -3 12 2 21 -3 53 -32 8 -7 15 -9 15 -4 0
15 -138 113 -167 118 -15 3 -22 1 -18 -6z"/>
<path d="M1841 4704 c0 -11 3 -14 6 -6 3 7 2 16 -1 19 -3 4 -6 -2 -5 -13z"/>
<path d="M1820 4674 c8 -8 23 -20 34 -26 16 -8 15 -4 -6 16 -30 28 -48 35 -28
10z"/>
<path d="M6042 5950 c0 -8 3 -26 7 -40 4 -14 4 -38 -1 -54 -5 -21 -5 -27 3
-19 14 14 14 70 0 103 -5 14 -10 18 -9 10z"/>
<path d="M5545 5920 c-3 -5 -1 -10 4 -10 6 0 11 5 11 10 0 6 -2 10 -4 10 -3 0
-8 -4 -11 -10z"/>
<path d="M6070 5860 c0 -5 5 -10 11 -10 5 0 7 5 4 10 -3 6 -8 10 -11 10 -2 0
-4 -4 -4 -10z"/>
<path d="M6026 5793 c-12 -25 -12 -30 -1 -30 8 0 14 3 13 6 -2 22 4 30 20 25
10 -4 13 -2 7 3 -5 4 -13 12 -17 17 -3 4 -13 -5 -22 -21z"/>
<path d="M5976 5783 c-6 -14 -5 -15 5 -6 7 7 10 15 7 18 -3 3 -9 -2 -12 -12z"/>
<path d="M5950 5740 c-6 -11 -8 -20 -6 -20 3 0 10 9 16 20 6 11 8 20 6 20 -3
0 -10 -9 -16 -20z"/>
<path d="M6050 5749 c0 -5 5 -7 10 -4 6 3 10 8 10 11 0 2 -4 4 -10 4 -5 0 -10
-5 -10 -11z"/>
<path d="M5991 5737 c-6 -8 -8 -17 -4 -20 3 -4 -1 -7 -10 -7 -9 0 -17 -7 -17
-15 0 -8 5 -15 11 -15 5 0 7 5 4 10 -6 10 7 14 32 11 6 -1 14 3 18 9 3 6 0 7
-9 4 -11 -4 -16 0 -16 11 0 9 5 13 10 10 6 -3 10 -1 10 4 0 15 -15 14 -29 -2z"/>
<path d="M5910 5665 c-7 -8 -9 -15 -6 -15 4 0 14 7 22 15 9 8 11 15 6 15 -5 0
-15 -7 -22 -15z"/>
<path d="M6623 5525 c0 -22 2 -30 4 -17 2 12 2 30 0 40 -3 9 -5 -1 -4 -23z"/>
<path d="M5577 5521 c19 -18 28 -20 55 -12 l33 9 -33 1 c-18 1 -43 6 -55 12
l-22 11 22 -21z"/>
<path d="M5565 5500 c-3 -5 -1 -10 4 -10 6 0 11 5 11 10 0 6 -2 10 -4 10 -3 0
-8 -4 -11 -10z"/>
<path d="M6632 5455 c0 -16 2 -22 5 -12 2 9 2 23 0 30 -3 6 -5 -1 -5 -18z"/>
<path d="M6621 5408 c0 -9 -4 -25 -7 -35 -5 -17 -5 -17 6 0 6 10 9 25 7 35 -4
15 -5 15 -6 0z"/>
<path d="M5559 5343 c-13 -16 -12 -17 4 -4 9 7 17 15 17 17 0 8 -8 3 -21 -13z"/>
<path d="M5480 5287 c-25 -23 -68 -61 -95 -85 l-50 -43 59 46 c83 64 150 125
140 125 -5 0 -29 -19 -54 -43z"/>
<path d="M6519 5263 c-13 -16 -12 -17 4 -4 9 7 17 15 17 17 0 8 -8 3 -21 -13z"/>
<path d="M5929 5214 c-14 -30 -22 -57 -17 -60 5 -3 8 -2 7 3 -4 16 13 43 24
36 6 -3 7 -1 3 5 -4 6 -2 21 4 32 6 12 10 25 8 30 -2 5 -15 -16 -29 -46z"/>
<path d="M6480 5219 c-22 -18 -22 -19 -3 -10 12 6 25 16 28 21 9 15 3 12 -25
-11z"/>
<path d="M5870 5185 c-19 -19 -29 -35 -23 -35 6 0 23 16 37 35 15 19 25 35 23
35 -1 0 -18 -16 -37 -35z"/>
<path d="M5884 5135 c-4 -8 -10 -13 -14 -10 -5 3 -15 -3 -22 -13 -7 -10 -62
-58 -123 -106 -138 -111 -131 -103 -101 -103 15 0 29 3 32 8 3 5 -3 6 -13 2
-12 -4 -15 -3 -8 5 6 5 19 12 30 14 11 2 20 8 20 13 0 18 15 34 28 31 7 -1 9
-1 4 1 -4 3 3 13 15 23 18 14 26 16 38 7 13 -11 13 -10 0 7 -14 18 -13 19 3
13 11 -4 16 -3 12 3 -9 14 8 12 25 -2 12 -11 12 -10 1 4 -12 15 -10 21 10 38
28 22 47 27 30 6 -9 -11 -9 -16 0 -22 7 -4 9 -3 5 4 -3 6 2 15 11 21 10 6 12
11 6 11 -7 0 -13 5 -13 11 0 6 7 8 17 5 10 -4 14 -4 11 0 -4 4 -3 15 3 25 5
11 7 19 4 19 -3 0 -8 -7 -11 -15z"/>
<path d="M6235 5130 c-6 -9 129 -11 143 -2 7 5 -20 8 -64 8 -42 -1 -77 -3 -79
-6z"/>
<path d="M5775 5088 l-40 -43 43 40 c39 36 47 45 39 45 -2 0 -21 -19 -42 -42z"/>
<path d="M5059 4947 c11 -19 18 -37 14 -40 -3 -4 -1 -7 5 -7 7 0 12 3 12 6 0
10 -41 74 -47 74 -2 0 5 -15 16 -33z"/>
<path d="M5569 4883 c-13 -16 -12 -17 4 -4 9 7 17 15 17 17 0 8 -8 3 -21 -13z"/>
<path d="M5091 4890 c0 -3 9 -34 19 -70 14 -44 18 -52 14 -25 -5 33 -31 110
-33 95z"/>
<path d="M5547 4859 c7 -7 15 -10 18 -7 3 3 -2 9 -12 12 -14 6 -15 5 -6 -5z"/>
<path d="M5500 4835 c-7 -8 -8 -15 -2 -15 5 0 15 7 22 15 7 8 8 15 2 15 -5 0
-15 -7 -22 -15z"/>
<path d="M5519 4803 c-13 -16 -12 -17 4 -4 9 7 17 15 17 17 0 8 -8 3 -21 -13z"/>
<path d="M5128 4715 c2 -19 6 -35 8 -35 2 0 4 16 4 35 0 19 -4 35 -8 35 -4 0
-6 -16 -4 -35z"/>
<path d="M5405 4720 c-3 -5 -1 -10 4 -10 6 0 11 5 11 10 0 6 -2 10 -4 10 -3 0
-8 -4 -11 -10z"/>
<path d="M5140 4636 c0 -8 -3 -21 -6 -30 -3 -9 -2 -16 3 -16 5 0 10 14 11 30
1 17 0 30 -3 30 -3 0 -5 -6 -5 -14z"/>
<path d="M5035 4610 c-3 -5 -1 -10 4 -10 6 0 11 5 11 10 0 6 -2 10 -4 10 -3 0
-8 -4 -11 -10z"/>
<path d="M5199 4583 c-13 -17 -13 -17 6 -3 11 8 22 16 24 17 2 2 0 3 -6 3 -6
0 -17 -8 -24 -17z"/>
<path d="M5097 4573 c4 -11 8 -12 13 -3 6 9 9 9 13 1 4 -8 5 -8 3 0 -1 7 -9
13 -18 15 -11 1 -15 -3 -11 -13z"/>
<path d="M5170 4540 c-9 -6 -10 -10 -3 -10 6 0 15 5 18 10 8 12 4 12 -15 0z"/>
<path d="M3343 5803 c9 -2 23 -2 30 0 6 3 -1 5 -18 5 -16 0 -22 -2 -12 -5z"/>
<path d="M3553 5763 c9 -2 25 -2 35 0 9 3 1 5 -18 5 -19 0 -27 -2 -17 -5z"/>
<path d="M3870 5767 c0 -7 122 -48 127 -43 3 2 -20 12 -49 21 -29 10 -59 20
-65 23 -7 2 -13 2 -13 -1z"/>
<path d="M3915 5700 c49 -16 91 -27 93 -25 5 4 -155 55 -171 54 -7 0 28 -13
78 -29z"/>
<path d="M4010 5716 c0 -2 7 -7 16 -10 8 -3 12 -2 9 4 -6 10 -25 14 -25 6z"/>
<path d="M3958 5513 c23 -2 61 -2 85 0 23 2 4 4 -43 4 -47 0 -66 -2 -42 -4z"/>
<path d="M2828 5483 c-20 -23 -48 -79 -48 -95 0 -7 10 7 21 32 11 24 27 53 36
62 9 10 14 18 11 18 -3 0 -12 -8 -20 -17z"/>
<path d="M4310 5481 c0 -7 13 -30 29 -50 41 -52 61 -95 77 -165 l14 -61 -5 60
c-6 87 -30 146 -75 190 -22 22 -40 33 -40 26z"/>
<path d="M3424 5335 c0 -55 1 -76 3 -47 2 29 2 74 0 100 -2 26 -3 2 -3 -53z"/>
<path d="M3588 5408 c-2 -7 -1 -35 3 -63 l6 -50 1 63 c2 59 -1 76 -10 50z"/>
<path d="M3841 5406 c12 -10 79 -16 79 -6 0 5 -19 10 -42 10 -23 0 -39 -2 -37
-4z"/>
<path d="M4191 5330 c0 -8 6 -37 13 -65 8 -27 15 -41 15 -30 0 11 -6 40 -13
65 -8 25 -15 38 -15 30z"/>
<path d="M2325 5188 c-25 -28 -51 -61 -57 -72 -13 -26 -14 -26 56 57 67 79 68
89 1 15z"/>
<path d="M3592 5215 c0 -16 2 -22 5 -12 2 9 2 23 0 30 -3 6 -5 -1 -5 -18z"/>
<path d="M3018 5193 c6 -2 18 -2 25 0 6 3 1 5 -13 5 -14 0 -19 -2 -12 -5z"/>
<path d="M3068 5193 c6 -2 18 -2 25 0 6 3 1 5 -13 5 -14 0 -19 -2 -12 -5z"/>
<path d="M2760 5155 c-14 -16 -3 -20 19 -6 8 5 9 11 3 15 -5 3 -15 -1 -22 -9z"/>
<path d="M2808 5163 c7 -3 16 -2 19 1 4 3 -2 6 -13 5 -11 0 -14 -3 -6 -6z"/>
<path d="M3972 5130 c0 -19 2 -27 5 -17 2 9 2 25 0 35 -3 9 -5 1 -5 -18z"/>
<path d="M3592 5105 c0 -16 2 -22 5 -12 2 9 2 23 0 30 -3 6 -5 -1 -5 -18z"/>
<path d="M4480 5069 c0 -5 5 -7 10 -4 6 3 10 8 10 11 0 2 -4 4 -10 4 -5 0 -10
-5 -10 -11z"/>
<path d="M4492 4995 c0 -16 2 -22 5 -12 2 9 2 23 0 30 -3 6 -5 -1 -5 -18z"/>
<path d="M4021 4946 c2 -2 27 -6 54 -10 34 -4 43 -3 30 3 -19 9 -93 15 -84 7z"/>
<path d="M5890 5005 c-8 -9 -8 -15 -2 -15 12 0 26 19 19 26 -2 2 -10 -2 -17
-11z"/>
<path d="M2536 4081 c-4 -5 -2 -12 3 -15 5 -4 12 -2 15 3 4 5 2 12 -3 15 -5 4
-12 2 -15 -3z"/>
<path d="M2520 4040 c0 -5 4 -10 9 -10 6 0 13 5 16 10 3 6 -1 10 -9 10 -9 0
-16 -4 -16 -10z"/>
<path d="M927 4019 c7 -7 15 -10 18 -7 3 3 -2 9 -12 12 -14 6 -15 5 -6 -5z"/>
<path d="M2495 4010 c-3 -5 3 -10 15 -10 12 0 18 5 15 10 -3 6 -10 10 -15 10
-5 0 -12 -4 -15 -10z"/>
<path d="M2473 3983 c-38 -5 -45 -23 -9 -23 31 0 56 10 56 21 0 5 -3 8 -7 7
-5 0 -23 -3 -40 -5z"/>
<path d="M1855 3950 l-70 -6 90 -2 c50 -1 97 3 105 8 17 11 -7 11 -125 0z"/>
<path d="M2423 3933 c-24 -8 -43 -19 -43 -25 0 -5 6 -7 13 -5 6 3 38 11 70 18
31 7 57 17 57 21 0 12 -51 8 -97 -9z"/>
<path d="M920 3909 c0 -5 5 -7 10 -4 6 3 10 8 10 11 0 2 -4 4 -10 4 -5 0 -10
-5 -10 -11z"/>
<path d="M962 3895 c-6 -14 -10 -25 -8 -25 2 0 11 11 20 25 9 14 13 25 8 25
-5 0 -14 -11 -20 -25z"/>
<path d="M1005 3910 c-5 -8 -15 -25 -23 -37 -8 -13 -10 -23 -4 -23 13 0 44 49
39 63 -2 7 -6 6 -12 -3z"/>
<path d="M1285 3894 c17 -13 55 -36 85 -50 30 -14 63 -30 72 -35 10 -5 32 -9
50 -8 l33 1 -35 10 c-60 17 -113 42 -162 76 -56 38 -87 43 -43 6z"/>
<path d="M1510 3906 c52 -32 165 -49 301 -44 87 2 133 8 141 17 11 10 6 11
-27 5 -22 -4 -94 -7 -160 -7 -109 0 -161 8 -262 39 -10 3 -7 -1 7 -10z"/>
<path d="M1728 3893 c34 -2 88 -2 120 0 31 2 3 3 -63 3 -66 0 -92 -1 -57 -3z"/>
<path d="M1046 3863 c-6 -14 -5 -15 5 -6 7 7 10 15 7 18 -3 3 -9 -2 -12 -12z"/>
<path d="M997 3833 c-4 -3 -7 -11 -7 -17 0 -6 5 -5 12 2 6 6 9 14 7 17 -3 3
-9 2 -12 -2z"/>
<path d="M1034 3828 c-4 -7 -3 -8 4 -4 8 5 12 -2 12 -21 0 -22 2 -25 10 -13 5
8 10 20 10 26 0 16 -28 25 -36 12z"/>
<path d="M1570 3790 c44 -8 257 -14 249 -6 -2 2 -69 6 -149 9 -90 3 -128 2
-100 -3z"/>
<path d="M3650 4021 c0 -7 -4 -9 -10 -6 -5 3 -10 2 -10 -4 0 -16 21 -24 33
-12 8 8 8 14 -1 23 -9 9 -12 9 -12 -1z"/>
<path d="M3573 4008 c4 -10 3 -18 -1 -18 -5 0 -8 -16 -8 -35 0 -25 3 -31 8
-20 5 8 8 23 6 32 -2 11 2 17 11 15 12 -3 12 -1 1 15 -22 28 -24 29 -17 11z"/>
<path d="M3728 4002 c-3 -11 0 -19 8 -19 7 0 11 4 8 9 -3 4 0 8 5 8 6 0 11 5
11 10 0 18 -28 11 -32 -8z"/>
<path d="M3930 4000 c0 -5 5 -10 10 -10 6 0 10 5 10 10 0 6 -4 10 -10 10 -5 0
-10 -4 -10 -10z"/>
<path d="M4018 3992 c3 -10 1 -13 -6 -8 -17 11 -15 -9 3 -24 13 -11 14 -10 9
4 -3 9 -2 16 3 16 5 0 10 6 10 13 0 8 -6 14 -13 14 -7 0 -10 -7 -6 -15z"/>
<path d="M4050 4000 c0 -5 5 -10 10 -10 6 0 10 5 10 10 0 6 -4 10 -10 10 -5 0
-10 -4 -10 -10z"/>
<path d="M4096 3997 c3 -10 9 -15 12 -12 3 3 0 11 -7 18 -10 9 -11 8 -5 -6z"/>
<path d="M4120 3999 c0 -5 5 -7 10 -4 6 3 10 2 10 -4 0 -5 -4 -13 -10 -16 -5
-3 -10 -10 -10 -16 0 -5 10 1 21 12 17 17 19 23 8 30 -19 12 -29 11 -29 -2z"/>
<path d="M4310 3999 c0 -21 30 -33 44 -18 8 9 8 10 -2 4 -8 -4 -19 0 -27 11
-13 17 -14 17 -15 3z"/>
<path d="M3511 3995 c-1 -6 7 -18 18 -27 18 -15 19 -14 17 7 -1 16 -4 20 -13
14 -7 -7 -13 -5 -16 3 -3 7 -6 8 -6 3z"/>
<path d="M3610 3990 c0 -5 5 -10 10 -10 6 0 10 5 10 10 0 6 -4 10 -10 10 -5 0
-10 -4 -10 -10z"/>
<path d="M4460 3991 c0 -6 4 -13 10 -16 6 -3 7 1 4 9 -7 18 -14 21 -14 7z"/>
<path d="M3880 3975 c15 -18 26 -19 33 -2 3 8 -4 14 -20 15 -22 2 -24 0 -13
-13z"/>
<path d="M4260 3981 c0 -5 7 -12 16 -15 24 -9 27 -7 10 9 -17 17 -26 19 -26 6z"/>
<path d="M4430 3981 c0 -5 7 -11 14 -14 10 -4 13 -1 9 9 -6 15 -23 19 -23 5z"/>
<path d="M4557 3976 c-4 -10 -1 -13 9 -9 7 3 14 9 14 14 0 14 -17 10 -23 -5z"/>
<path d="M4216 3967 c-16 -12 -17 -15 -3 -20 10 -4 17 1 20 14 6 23 6 23 -17
6z"/>
<path d="M4385 3970 c-18 -7 -19 -8 -3 -15 10 -4 16 -10 13 -14 -2 -4 2 -8 10
-8 11 0 12 4 4 13 -6 7 -8 18 -4 24 7 11 7 11 -20 0z"/>
<path d="M4680 3970 c0 -5 5 -10 11 -10 5 0 7 -5 4 -10 -4 -6 -11 -7 -17 -4
-7 4 -8 2 -4 -5 11 -17 37 6 29 25 -6 16 -23 19 -23 4z"/>
<path d="M3407 3957 c-3 -7 3 -13 13 -13 10 0 16 6 13 13 -3 7 -9 13 -13 13
-4 0 -10 -6 -13 -13z"/>
<path d="M3757 3956 c-4 -10 -1 -13 9 -9 15 6 19 23 5 23 -5 0 -11 -7 -14 -14z"/>
<path d="M3955 3961 c3 -5 1 -12 -5 -16 -6 -4 -8 -10 -5 -15 3 -5 1 -11 -5
-15 -5 -3 -10 -1 -10 4 0 6 -7 11 -16 11 -9 0 -12 -5 -8 -11 4 -7 1 -10 -7 -7
-8 3 -13 11 -11 17 1 7 -2 10 -8 6 -6 -3 -8 -11 -5 -16 4 -5 -1 -9 -10 -9 -9
0 -13 -5 -10 -10 4 -6 16 -8 28 -4 12 4 33 7 47 8 17 1 25 6 24 19 -1 9 5 17
13 17 9 0 13 -6 10 -14 -9 -23 16 -37 33 -18 13 14 12 15 -2 10 -11 -5 -18 0
-22 17 -3 12 -13 25 -21 29 -9 3 -13 2 -10 -3z"/>
<path d="M4093 3963 c-15 -5 -17 -23 -4 -23 5 0 11 7 15 15 3 8 4 15 3 14 -1
0 -8 -3 -14 -6z"/>
<path d="M4640 3959 c-11 -8 -12 -12 -2 -16 6 -2 10 -8 8 -12 -3 -4 1 -8 9 -8
11 0 12 4 4 13 -6 7 -8 18 -4 24 8 13 4 13 -15 -1z"/>
<path d="M3287 3944 c6 -15 23 -19 23 -5 0 5 -7 11 -14 14 -10 4 -13 1 -9 -9z"/>
<path d="M3647 3946 c-8 -8 -18 -12 -22 -8 -5 4 -5 2 -1 -5 8 -14 36 -6 36 10
0 6 3 7 6 4 4 -4 1 -14 -7 -24 -11 -14 -11 -15 0 -9 10 7 12 3 6 -13 -5 -18
-2 -21 24 -21 16 0 32 4 36 9 3 5 20 7 39 4 26 -4 35 -1 40 13 9 24 -25 46
-39 24 -3 -6 1 -7 9 -4 9 3 16 1 16 -5 0 -17 -31 -26 -39 -12 -6 9 -11 8 -21
-4 -7 -8 -23 -15 -35 -15 -19 0 -22 5 -19 30 4 35 -9 46 -29 26z"/>
<path d="M4340 3949 c-11 -8 -12 -12 -3 -16 7 -2 15 -4 19 -3 4 1 11 -4 15
-12 5 -7 9 -8 9 -2 0 5 -6 18 -12 27 -10 12 -17 14 -28 6z"/>
<path d="M4800 3952 c0 -5 7 -13 16 -16 10 -4 14 -1 12 6 -5 15 -28 23 -28 10z"/>
<path d="M3373 3943 c-15 -5 -17 -23 -4 -23 5 0 11 7 15 15 3 8 4 15 3 14 -1
0 -8 -3 -14 -6z"/>
<path d="M3448 3930 c-7 -24 -3 -38 8 -28 3 4 4 17 2 30 l-3 23 -7 -25z"/>
<path d="M4043 3943 c-15 -5 -18 -33 -4 -33 5 0 11 9 14 20 3 11 4 20 4 19 -1
0 -8 -3 -14 -6z"/>
<path d="M4434 3939 c-4 -7 -3 -9 4 -5 5 3 12 0 15 -6 2 -7 7 -10 11 -7 4 3 0
12 -8 18 -11 9 -16 9 -22 0z"/>
<path d="M4715 3934 c-10 -8 -15 -17 -11 -21 4 -4 12 0 17 10 7 11 17 16 29
12 10 -3 21 -2 23 2 9 14 -38 11 -58 -3z"/>
<path d="M3720 3929 c0 -5 5 -7 10 -4 6 3 10 8 10 11 0 2 -4 4 -10 4 -5 0 -10
-5 -10 -11z"/>
<path d="M3170 3920 c0 -5 5 -10 10 -10 6 0 10 5 10 10 0 6 -4 10 -10 10 -5 0
-10 -4 -10 -10z"/>
<path d="M4141 3919 c-35 -5 -69 -5 -74 -2 -6 3 -7 2 -4 -4 3 -5 -29 -24 -72
-41 -103 -43 -162 -82 -247 -167 -52 -51 -81 -91 -110 -149 -38 -78 -39 -82
-39 -190 0 -104 2 -115 32 -176 42 -87 86 -135 177 -198 157 -108 278 -129
534 -90 39 6 72 14 72 17 0 4 -49 3 -109 -2 -67 -5 -127 -5 -153 1 l-43 10 40
1 c123 3 278 74 365 167 32 35 62 60 65 55 7 -13 -5 -42 -16 -35 -5 3 -9 0 -9
-5 0 -6 4 -11 10 -11 11 0 60 92 60 112 0 7 -9 -5 -18 -27 -11 -24 -21 -35
-25 -28 -4 7 3 32 15 58 18 37 24 43 30 28 4 -10 5 0 2 22 -3 24 -2 35 3 28 5
-8 10 33 12 101 4 183 -35 307 -129 407 -27 29 -47 56 -44 61 3 4 -2 5 -10 2
-9 -3 -32 3 -51 15 -66 39 -159 53 -264 40z m429 -574 c-18 -91 -61 -174 -116
-225 -33 -31 -39 -34 -17 -10 84 93 131 216 135 357 l2 68 4 -65 c2 -36 -2
-92 -8 -125z m-64 -7 c-9 -53 -49 -129 -90 -165 l-31 -28 26 30 c36 40 65 97
80 156 16 60 24 64 15 7z"/>
<path d="M3080 3904 c0 -8 5 -12 10 -9 6 4 8 11 5 16 -9 14 -15 11 -15 -7z"/>
<path d="M3150 3913 c0 -7 -10 -13 -22 -13 -22 -1 -22 -1 -4 -11 13 -8 20 -8
25 0 5 7 12 2 21 -14 13 -25 30 -34 30 -15 0 6 5 10 11 10 6 0 8 -7 5 -16 -3
-9 -2 -12 5 -9 5 4 7 15 4 25 -6 20 18 34 45 25 12 -4 16 -12 13 -25 -3 -11 0
-20 6 -20 18 0 13 34 -9 52 -18 16 -21 16 -50 0 -16 -9 -30 -20 -30 -24 0 -18
-20 -6 -34 20 -8 15 -15 21 -16 15z"/>
<path d="M3205 3910 c-3 -6 1 -7 9 -4 18 7 21 14 7 14 -6 0 -13 -4 -16 -10z"/>
<path d="M3317 3903 c3 -13 10 -23 17 -23 6 0 4 -5 -4 -10 -9 -6 -10 -10 -3
-10 6 0 15 5 18 11 4 6 13 8 19 6 7 -3 13 1 13 9 0 9 -5 10 -15 5 -11 -6 -21
-2 -33 13 l-18 21 6 -22z"/>
<path d="M3695 3910 c3 -5 8 -10 11 -10 2 0 4 5 4 10 0 6 -5 10 -11 10 -5 0
-7 -4 -4 -10z"/>
<path d="M4390 3909 c0 -5 17 -9 37 -9 43 0 40 8 -5 14 -18 2 -32 -1 -32 -5z"/>
<path d="M4481 3911 c-9 -6 -5 -10 16 -14 15 -3 33 -1 38 5 7 8 5 9 -6 5 -9
-3 -21 -1 -25 3 -5 5 -15 5 -23 1z"/>
<path d="M4565 3910 c-3 -5 1 -10 10 -10 9 0 13 5 10 10 -3 6 -8 10 -10 10 -2
0 -7 -4 -10 -10z"/>
<path d="M4616 3905 c-3 -8 -1 -15 4 -15 6 0 10 7 10 15 0 8 -2 15 -4 15 -2 0
-6 -7 -10 -15z"/>
<path d="M4833 3913 c-7 -2 -13 -8 -13 -13 0 -11 49 -19 56 -8 3 4 2 8 -3 7
-20 -3 -34 2 -28 11 7 11 6 11 -12 3z"/>
<path d="M3055 3900 c3 -5 8 -10 11 -10 2 0 4 5 4 10 0 6 -5 10 -11 10 -5 0
-7 -4 -4 -10z"/>
<path d="M4665 3899 c4 -5 16 -9 27 -9 26 0 19 9 -11 15 -12 2 -19 0 -16 -6z"/>
<path d="M3390 3885 c0 -8 7 -15 15 -15 8 0 15 -4 15 -10 0 -5 10 -10 23 -9
l22 0 -22 9 c-13 5 -23 14 -23 19 0 5 -7 11 -15 15 -9 3 -15 0 -15 -9z"/>
<path d="M3571 3882 c-19 -13 -25 -14 -29 -4 -3 10 -7 10 -18 1 -11 -9 -21 -9
-39 -1 -18 8 -26 8 -31 0 -4 -7 -3 -8 4 -4 7 4 12 2 12 -4 0 -13 119 -5 133 9
17 17 -8 19 -32 3z"/>
<path d="M4764 3888 c10 -5 23 -5 34 1 14 8 10 10 -16 9 -26 -1 -30 -3 -18
-10z"/>
<path d="M3625 3880 c-3 -6 1 -7 9 -4 18 7 21 14 7 14 -6 0 -13 -4 -16 -10z"/>
<path d="M2957 3874 c-8 -8 1 -24 14 -24 5 0 9 7 9 15 0 15 -12 20 -23 9z"/>
<path d="M3010 3871 c0 -9 24 -21 41 -21 5 0 9 7 9 15 0 9 -9 15 -25 15 -14 0
-25 -4 -25 -9z"/>
<path d="M3088 3863 c-27 -32 -28 -48 -2 -48 19 0 21 2 9 15 -11 13 -11 17 1
28 9 8 14 9 14 2 0 -6 5 -8 10 -5 6 3 10 10 10 16 0 15 -26 10 -42 -8z"/>
<path d="M4660 3873 c0 -8 -13 -13 -29 -13 -29 0 -49 -15 -36 -28 3 -3 10 0
14 7 6 8 30 13 67 14 33 0 46 2 29 5 -16 2 -33 9 -37 15 -6 9 -8 9 -8 0z"/>
<path d="M3147 3863 c-4 -3 -7 -11 -7 -17 0 -6 5 -4 10 4 9 13 10 13 10 0 0
-9 -6 -22 -12 -29 -11 -10 -10 -11 4 -6 9 4 19 13 22 20 5 15 -17 39 -27 28z"/>
<path d="M3255 3860 c-3 -5 -1 -10 4 -10 6 0 11 5 11 10 0 6 -2 10 -4 10 -3 0
-8 -4 -11 -10z"/>
<path d="M3350 3850 c0 -12 8 -12 35 0 18 8 17 9 -7 9 -16 1 -28 -3 -28 -9z"/>
<path d="M3315 3840 c-3 -5 -2 -10 4 -10 5 0 13 5 16 10 3 6 2 10 -4 10 -5 0
-13 -4 -16 -10z"/>
<path d="M3628 3843 c6 -2 18 -2 25 0 6 3 1 5 -13 5 -14 0 -19 -2 -12 -5z"/>
<path d="M3230 3826 c0 -17 37 -13 54 5 8 8 5 8 -11 0 -15 -8 -23 -8 -23 -1 0
5 -4 10 -10 10 -5 0 -10 -6 -10 -14z"/>
<path d="M3500 3830 c-27 -6 -29 -8 -10 -8 14 -1 43 3 65 7 33 7 35 9 10 9
-16 -1 -46 -4 -65 -8z"/>
<path d="M3428 3813 c6 -2 18 -2 25 0 6 3 1 5 -13 5 -14 0 -19 -2 -12 -5z"/>
<path d="M3388 3803 c7 -3 16 -2 19 1 4 3 -2 6 -13 5 -11 0 -14 -3 -6 -6z"/>
<path d="M3112 3788 c2 -6 10 -14 16 -16 7 -2 10 2 6 12 -7 18 -28 22 -22 4z"/>
<path d="M3160 3790 c-8 -5 -10 -10 -5 -10 6 0 17 5 25 10 8 5 11 10 5 10 -5
0 -17 -5 -25 -10z"/>
<path d="M3338 3793 c7 -3 16 -2 19 1 4 3 -2 6 -13 5 -11 0 -14 -3 -6 -6z"/>
<path d="M3589 3566 c-10 -24 -22 -59 -25 -78 -3 -18 6 -4 20 34 14 38 28 72
31 78 3 5 3 10 0 10 -3 0 -15 -20 -26 -44z"/>
<path d="M2265 3590 c-3 -6 1 -7 9 -4 18 7 21 14 7 14 -6 0 -13 -4 -16 -10z"/>
<path d="M2226 3572 c-3 -5 1 -9 9 -9 8 0 15 4 15 9 0 4 -4 8 -9 8 -6 0 -12
-4 -15 -8z"/>
<path d="M2197 3544 c3 -7 9 -14 14 -14 14 0 10 17 -5 23 -10 4 -13 1 -9 -9z"/>
<path d="M2267 3536 c-4 -10 -1 -13 9 -9 15 6 19 23 5 23 -5 0 -11 -7 -14 -14z"/>
<path d="M2139 3508 c-11 -8 -10 -9 4 -4 9 3 17 1 17 -3 0 -14 29 -21 36 -9 4
7 3 8 -4 4 -7 -4 -12 -3 -12 2 0 15 -25 21 -41 10z"/>
<path d="M2228 3507 c6 -7 26 -13 44 -14 33 -2 30 0 -26 18 -22 7 -26 6 -18
-4z"/>
<path d="M2220 3439 c-41 -17 -42 -19 -11 -13 45 8 104 33 76 33 -11 -1 -40
-10 -65 -20z"/>
<path d="M3554 3436 c-3 -8 -4 -29 -2 -48 3 -29 4 -27 8 15 5 48 3 58 -6 33z"/>
<path d="M2115 3410 c-25 -11 1 -11 35 0 20 6 21 8 5 8 -11 0 -29 -3 -40 -8z"/>
<path d="M2148 3373 c7 -3 16 -2 19 1 4 3 -2 6 -13 5 -11 0 -14 -3 -6 -6z"/>
<path d="M3352 3117 c-38 -72 -90 -132 -150 -172 -50 -33 -55 -42 -10 -19 60
31 144 121 173 185 15 33 25 62 23 64 -2 2 -18 -24 -36 -58z"/>
<path d="M2387 3062 c10 -18 31 -45 48 -61 30 -28 105 -77 105 -68 0 2 -17 16
-37 29 -43 29 -90 72 -116 108 -17 24 -17 24 0 -8z"/>
<path d="M4536 3074 c-9 -24 -2 -26 12 -4 7 11 8 20 3 20 -5 0 -12 -7 -15 -16z"/>
<path d="M4511 3052 c-1 -7 -6 -10 -13 -6 -7 4 -8 3 -4 -4 4 -7 2 -12 -4 -12
-6 0 -8 -5 -4 -11 9 -15 38 15 31 33 -4 10 -6 10 -6 0z"/>
<path d="M4460 3000 c-8 -5 -24 -7 -35 -4 -14 4 -16 3 -7 -4 10 -7 10 -11 -2
-21 -8 -7 -21 -9 -27 -5 -8 5 -9 3 -4 -6 6 -9 1 -10 -16 -5 -19 5 -21 4 -9 -4
12 -9 13 -11 1 -11 -8 0 -12 -3 -8 -6 6 -6 72 29 112 60 22 17 19 21 -5 6z"/>
<path d="M3800 2950 c0 -5 7 -7 15 -4 8 4 15 8 15 10 0 2 -7 4 -15 4 -8 0 -15
-4 -15 -10z"/>
<path d="M4308 2933 c7 -3 16 -2 19 1 4 3 -2 6 -13 5 -11 0 -14 -3 -6 -6z"/>
<path d="M3560 2871 c0 -5 5 -13 11 -17 6 -3 19 -20 30 -38 10 -17 19 -26 19
-21 0 11 -26 52 -47 73 -7 7 -13 9 -13 3z"/>
<path d="M3526 2832 c-12 -14 -15 -29 -10 -63 7 -50 7 -90 -2 -169 -4 -46 -2
-60 15 -82 20 -25 81 -44 81 -25 0 5 9 7 20 4 12 -3 17 -1 14 5 -3 5 2 8 12 6
11 -2 18 2 16 10 -1 7 5 15 13 18 20 8 19 66 -1 119 -9 22 -16 45 -16 52 -1 7
-6 9 -11 6 -6 -4 -8 1 -4 11 4 9 3 15 -2 12 -8 -5 -12 0 -22 29 -3 11 -75 85
-82 85 -2 0 -11 -8 -21 -18z"/>
<path d="M3418 2801 c-64 -41 -117 -136 -118 -211 0 -33 36 -91 61 -97 10 -3
19 -9 19 -12 0 -10 43 -8 51 2 3 4 16 9 29 12 31 6 34 10 37 58 4 52 -18 266
-27 272 -4 2 -27 -8 -52 -24z m72 -280 c0 -5 -7 -12 -16 -15 -14 -5 -15 -4 -4
9 14 17 20 19 20 6z"/>
<path d="M4594 2744 c-18 -14 -18 -15 4 -4 12 6 22 13 22 15 0 8 -5 6 -26 -11z"/>
<path d="M4075 2650 c3 -5 8 -10 11 -10 2 0 4 5 4 10 0 6 -5 10 -11 10 -5 0
-7 -4 -4 -10z"/>
<path d="M3986 2571 c-4 -7 -5 -15 -2 -18 9 -9 19 4 14 18 -4 11 -6 11 -12 0z"/>
<path d="M4350 2534 c-36 -13 -51 -22 -35 -20 30 5 129 45 110 45 -5 -1 -39
-12 -75 -25z"/>
<path d="M3846 2515 c4 -8 8 -15 10 -15 2 0 4 7 4 15 0 8 -4 15 -10 15 -5 0
-7 -7 -4 -15z"/>
<path d="M4200 2490 c-30 -10 -50 -18 -45 -19 6 0 37 8 70 18 33 11 53 19 45
19 -8 1 -40 -7 -70 -18z"/>
<path d="M3790 2470 c0 -5 5 -10 10 -10 6 0 10 5 10 10 0 6 -4 10 -10 10 -5 0
-10 -4 -10 -10z"/>
<path d="M3890 2469 c0 -5 5 -7 10 -4 6 3 10 8 10 11 0 2 -4 4 -10 4 -5 0 -10
-5 -10 -11z"/>
<path d="M3980 2470 c0 -5 5 -10 10 -10 6 0 10 5 10 10 0 6 -4 10 -10 10 -5 0
-10 -4 -10 -10z"/>
<path d="M3840 2419 c0 -5 5 -7 10 -4 6 3 10 8 10 11 0 2 -4 4 -10 4 -5 0 -10
-5 -10 -11z"/>
<path d="M3030 2359 c0 -5 5 -7 10 -4 6 3 10 8 10 11 0 2 -4 4 -10 4 -5 0 -10
-5 -10 -11z"/>
<path d="M2868 2353 c7 -3 16 -2 19 1 4 3 -2 6 -13 5 -11 0 -14 -3 -6 -6z"/>
<path d="M4159 2320 c-15 -11 -40 -27 -55 -35 -18 -9 -23 -15 -12 -15 9 0 20
5 23 10 4 6 11 8 16 5 5 -4 9 -1 9 4 0 6 7 11 15 11 8 0 19 9 25 20 13 24 12
24 -21 0z"/>
<path d="M2837 2249 c7 -7 15 -10 18 -7 3 3 -2 9 -12 12 -14 6 -15 5 -6 -5z"/>
<path d="M3008 2243 c7 -3 16 -2 19 1 4 3 -2 6 -13 5 -11 0 -14 -3 -6 -6z"/>
<path d="M3998 2244 c-5 -4 -35 -10 -70 -13 -5 -1 -8 -6 -8 -12 0 -8 4 -9 13
0 8 6 16 9 18 6 3 -2 25 2 49 10 25 7 36 14 24 14 -11 1 -23 -2 -26 -5z"/>
<path d="M2890 2230 c34 -11 60 -11 35 0 -11 5 -29 8 -40 8 -16 0 -15 -2 5 -8z"/>
<path d="M3063 2233 c9 -2 25 -2 35 0 9 3 1 5 -18 5 -19 0 -27 -2 -17 -5z"/>
<path d="M3148 2223 c18 -2 45 -2 60 0 15 2 0 4 -33 4 -33 0 -45 -2 -27 -4z"/>
<path d="M2958 2213 c7 -3 16 -2 19 1 4 3 -2 6 -13 5 -11 0 -14 -3 -6 -6z"/>
<path d="M3253 2213 c9 -2 25 -2 35 0 9 3 1 5 -18 5 -19 0 -27 -2 -17 -5z"/>
<path d="M3810 2204 l-55 -13 50 5 c28 3 54 10 60 15 5 5 7 8 5 8 -3 -1 -30
-7 -60 -15z"/>
<path d="M3888 2213 c7 -3 16 -2 19 1 4 3 -2 6 -13 5 -11 0 -14 -3 -6 -6z"/>
<path d="M3003 2203 c9 -2 23 -2 30 0 6 3 -1 5 -18 5 -16 0 -22 -2 -12 -5z"/>
<path d="M3080 2190 c37 -10 568 -15 578 -6 3 3 -112 6 -255 6 -143 0 -282 2
-309 5 -44 4 -46 4 -14 -5z"/>
<path d="M3676 2181 c-3 -4 6 -6 19 -3 14 2 25 6 25 8 0 8 -39 4 -44 -5z"/>
<path d="M6010 2709 c-7 -11 -10 -23 -7 -25 2 -2 9 7 15 21 14 30 7 33 -8 4z"/>
<path d="M4685 2541 c-2 -5 3 -15 12 -22 9 -8 14 -9 10 -2 -4 6 -2 13 5 15 8
3 6 7 -5 11 -9 3 -19 2 -22 -2z"/>
<path d="M4723 2493 c-40 -54 -63 -78 -74 -78 -5 0 -9 -4 -10 -10 0 -5 -10
-20 -21 -32 -12 -13 -17 -23 -11 -23 6 0 31 24 55 53 59 69 102 127 95 127 -3
0 -19 -17 -34 -37z"/>
<path d="M4756 2482 l-19 -27 24 22 c12 12 21 24 18 27 -2 2 -13 -8 -23 -22z"/>
<path d="M4686 2484 c-5 -14 -4 -15 9 -4 17 14 19 20 6 20 -5 0 -12 -7 -15
-16z"/>
<path d="M4719 2433 c-13 -16 -12 -17 4 -4 16 13 21 21 13 21 -2 0 -10 -8 -17
-17z"/>
<path d="M4466 2412 c-2 -4 12 -21 32 -36 l37 -28 -34 33 -35 32 30 -7 c21 -5
25 -4 14 4 -18 12 -37 13 -44 2z"/>
<path d="M4540 2415 c0 -5 5 -17 10 -25 5 -8 10 -10 10 -5 0 6 -5 17 -10 25
-5 8 -10 11 -10 5z"/>
<path d="M4549 2343 c-13 -16 -12 -17 4 -4 15 12 21 9 18 -11 0 -4 6 -5 15 -1
8 3 14 6 12 7 -2 1 -10 7 -19 14 -13 10 -19 9 -30 -5z"/>
<path d="M4635 2273 c28 -25 84 -78 125 -117 41 -39 89 -82 105 -95 28 -22 4
2 -191 190 -39 38 -75 69 -80 69 -5 0 14 -21 41 -47z"/>
<path d="M5099 2257 c8 -10 55 -51 105 -91 50 -40 113 -92 141 -115 27 -22 54
-41 59 -41 14 0 -71 76 -173 153 -148 114 -148 114 -132 94z"/>
<path d="M4775 2210 c-3 -6 1 -7 9 -4 18 7 21 14 7 14 -6 0 -13 -4 -16 -10z"/>
<path d="M4590 2206 c0 -2 8 -10 18 -17 15 -13 16 -12 3 4 -13 16 -21 21 -21
13z"/>
<path d="M5230 2116 c0 -3 9 -10 20 -16 11 -6 20 -8 20 -6 0 3 -9 10 -20 16
-11 6 -20 8 -20 6z"/>
<path d="M4940 1988 c41 -45 50 -53 50 -45 0 2 -21 23 -47 47 l-48 45 45 -47z"/>
<path d="M6238 1890 c9 -21 18 -35 20 -30 3 9 -25 70 -33 70 -2 0 4 -18 13
-40z"/>
<path d="M6263 1795 c0 -27 2 -38 4 -22 2 15 2 37 0 50 -2 12 -4 0 -4 -28z"/>
<path d="M5845 1510 c-3 -5 -1 -10 4 -10 6 0 11 5 11 10 0 6 -2 10 -4 10 -3 0
-8 -4 -11 -10z"/>
<path d="M6162 1478 c-6 -6 -35 -22 -63 -33 -42 -18 -47 -23 -30 -28 14 -3 19
-1 14 6 -4 7 0 8 11 4 10 -4 15 -3 11 3 -3 6 1 10 9 10 14 0 78 49 66 50 -4 0
-11 -5 -18 -12z"/>
<path d="M5815 1441 c3 -6 11 -8 17 -5 6 4 15 0 20 -7 8 -12 9 -11 5 1 -2 8
-14 17 -26 18 -15 2 -21 0 -16 -7z"/>
<path d="M5883 1413 c9 -2 23 -2 30 0 6 3 -1 5 -18 5 -16 0 -22 -2 -12 -5z"/>
<path d="M5960 1410 c-29 -6 -26 -7 22 -6 32 0 58 4 58 9 0 8 -31 7 -80 -3z"/>
<path d="M5690 1025 c-14 -8 -20 -14 -14 -15 5 0 19 7 30 15 24 18 16 19 -16
0z"/>
<path d="M5701 1000 c-47 -32 -48 -39 -2 -16 24 13 61 46 50 46 -2 0 -24 -14
-48 -30z"/>
<path d="M5310 965 c14 -8 30 -14 35 -14 6 0 -1 6 -15 14 -14 8 -29 14 -35 14
-5 0 1 -6 15 -14z"/>
<path d="M5614 954 c-18 -14 -18 -14 6 -3 31 14 36 19 24 19 -6 0 -19 -7 -30
-16z"/>
<path d="M2270 2595 c13 -14 26 -25 28 -25 3 0 -5 11 -18 25 -13 14 -26 25
-28 25 -3 0 5 -11 18 -25z"/>
<path d="M2313 2484 c4 -7 0 -17 -8 -24 -11 -10 -18 -9 -30 4 -9 9 -19 16 -23
16 -3 0 12 -18 33 -40 38 -38 65 -51 65 -30 0 6 -3 9 -7 9 -19 -3 -22 3 -13
25 7 19 5 28 -7 38 -9 7 -14 8 -10 2z m8 -27 c-6 -8 -7 -18 -3 -22 4 -5 1 -5
-6 -1 -10 6 -10 11 -1 22 6 8 14 14 16 14 3 0 0 -6 -6 -13z"/>
<path d="M2230 2447 c0 -2 15 -16 33 -33 l32 -29 -29 33 c-28 30 -36 37 -36
29z"/>
<path d="M2350 2443 c0 -5 9 -18 20 -28 23 -21 27 -47 5 -39 -8 4 -12 11 -8
17 4 6 1 7 -7 2 -10 -6 -4 -17 25 -42 l38 -33 -23 -28 c-38 -43 -85 -87 -245
-231 -213 -192 -230 -208 -212 -208 9 0 15 3 14 6 -3 10 62 71 72 68 5 -1 9 2
9 6 1 5 19 22 41 38 23 16 41 34 41 40 0 5 4 8 9 5 5 -3 14 1 21 9 7 8 9 15 5
15 -4 0 14 19 41 43 26 23 52 41 58 39 6 -2 8 -1 4 3 -4 4 9 21 29 38 65 59
123 119 123 129 0 6 7 8 15 5 8 -4 17 -1 21 5 5 7 2 8 -6 3 -8 -5 -11 -3 -8 6
3 8 -6 22 -18 32 -23 18 -23 53 0 40 6 -3 0 4 -14 17 -14 13 -31 30 -37 38 -7
9 -13 11 -13 5z m-240 -437 c0 -2 -8 -10 -17 -17 -16 -13 -17 -12 -4 4 13 16
21 21 21 13z"/>
<path d="M2004 2083 c-100 -88 -258 -240 -204 -198 42 34 300 267 300 272 0 8
-13 -2 -96 -74z"/>
<path d="M1955 1976 c-227 -206 -342 -315 -332 -316 4 0 68 54 142 120 142
127 374 349 365 350 -3 0 -82 -69 -175 -154z"/>
<path d="M1405 1870 c-3 -5 -1 -10 4 -10 6 0 11 5 11 10 0 6 -2 10 -4 10 -3 0
-8 -4 -11 -10z"/>
<path d="M1186 1863 c6 -4 14 -15 17 -23 5 -11 6 -9 4 4 -1 11 -9 21 -17 23
-10 3 -11 2 -4 -4z"/>
<path d="M1630 1560 c-9 -6 -10 -10 -3 -10 6 0 15 5 18 10 8 12 4 12 -15 0z"/>
<path d="M1140 1450 c-9 -6 -10 -10 -3 -10 6 0 15 5 18 10 8 12 4 12 -15 0z"/>
<path d="M1085 1416 c-29 -13 -29 -14 -5 -13 14 1 31 7 38 14 17 16 5 16 -33
-1z"/>
<path d="M841 1396 c2 -2 15 -9 29 -15 24 -11 24 -11 6 3 -16 13 -49 24 -35
12z"/>
<path d="M1010 1389 c-22 -8 -21 -8 8 -4 18 3 31 1 28 -3 -3 -5 1 -9 9 -9 11
0 12 4 4 14 -13 15 -14 15 -49 2z"/>
<path d="M949 1373 c-13 -16 -12 -17 4 -4 9 7 17 15 17 17 0 8 -8 3 -21 -13z"/>
<path d="M1702 1030 c-34 -33 -59 -60 -55 -60 9 1 77 63 107 98 33 38 13 24
-52 -38z"/>
<path d="M1540 930 c-8 -5 -10 -10 -5 -10 6 0 17 5 25 10 8 5 11 10 5 10 -5 0
-17 -5 -25 -10z"/>
<path d="M1272 917 c10 -8 14 -18 10 -22 -4 -4 4 -2 16 4 28 15 27 16 -13 25
-27 6 -28 5 -13 -7z"/>
<path d="M1403 911 c-39 -3 -74 -8 -77 -11 -7 -8 121 0 164 10 41 9 20 10 -87
1z"/>
<path d="M2850 2129 c0 -5 9 -9 20 -9 11 0 20 2 20 4 0 2 -9 6 -20 9 -11 3
-20 1 -20 -4z"/>
<path d="M2820 2115 c-11 -13 -10 -14 4 -9 9 3 16 10 16 15 0 13 -6 11 -20 -6z"/>
<path d="M4042 2094 c10 -10 20 -15 24 -12 3 4 -5 12 -18 18 -22 12 -22 12 -6
-6z"/>
<path d="M3040 2086 c0 -2 7 -7 16 -10 8 -3 12 -2 9 4 -6 10 -25 14 -25 6z"/>
<path d="M3233 2047 c12 -13 24 -22 26 -20 6 4 -30 43 -40 43 -5 0 2 -10 14
-23z"/>
<path d="M3398 2060 c37 -9 35 -7 50 -35 10 -17 11 -17 12 -3 0 22 -38 48 -70
47 -21 -1 -20 -2 8 -9z"/>
<path d="M3330 2035 c-7 -9 -11 -17 -9 -20 3 -2 10 5 17 15 14 24 10 26 -8 5z"/>
<path d="M3539 2033 c-13 -16 -12 -17 4 -4 9 7 17 15 17 17 0 8 -8 3 -21 -13z"/>
<path d="M4180 1695 c-7 -9 -10 -18 -7 -21 3 -3 10 4 17 15 13 25 8 27 -10 6z"/>
<path d="M4130 1650 c-8 -5 -10 -10 -5 -10 6 0 17 5 25 10 8 5 11 10 5 10 -5
0 -17 -5 -25 -10z"/>
<path d="M4309 1743 c-13 -16 -12 -17 4 -4 16 13 21 21 13 21 -2 0 -10 -8 -17
-17z"/>
<path d="M2760 1780 c0 -5 -10 -11 -22 -11 -17 -1 -18 -3 -6 -6 9 -2 29 3 45
11 26 14 27 15 6 16 -13 0 -23 -4 -23 -10z"/>
<path d="M2771 1696 c-18 -21 -69 -30 -87 -15 -8 6 -17 9 -21 6 -3 -4 9 -13
28 -21 19 -8 35 -10 37 -5 2 5 9 9 16 9 7 0 21 9 31 20 10 11 16 20 13 20 -3
0 -11 -6 -17 -14z"/>
<path d="M2874 1585 c11 -8 27 -15 36 -15 9 0 25 7 36 15 18 14 17 14 -8 4
-22 -9 -34 -9 -55 0 -26 10 -27 10 -9 -4z"/>
<path d="M3945 1560 c-3 -5 -1 -10 4 -10 6 0 11 5 11 10 0 6 -2 10 -4 10 -3 0
-8 -4 -11 -10z"/>
<path d="M3878 1543 c12 -2 30 -2 40 0 9 3 -1 5 -23 4 -22 0 -30 -2 -17 -4z"/>
<path d="M3046 1545 c4 -8 8 -15 10 -15 2 0 4 7 4 15 0 8 -4 15 -10 15 -5 0
-7 -7 -4 -15z"/>
<path d="M3070 1531 c0 -5 7 -11 15 -15 8 -3 15 -1 15 3 0 5 -7 11 -15 15 -8
3 -15 1 -15 -3z"/>
<path d="M3115 1520 c3 -5 12 -7 20 -3 21 7 19 13 -6 13 -11 0 -18 -4 -14 -10z"/>
<path d="M3264 1518 c-4 -6 -3 -8 4 -4 5 3 12 1 14 -5 2 -7 9 -10 16 -8 8 3 5
9 -7 16 -15 9 -22 10 -27 1z"/>
<path d="M3400 1500 c-13 -8 -13 -10 2 -10 9 0 20 5 23 10 8 13 -5 13 -25 0z"/>
<path d="M3697 1525 c-15 -14 -24 -25 -19 -25 5 0 19 11 32 25 30 32 23 32
-13 0z"/>
<path d="M3552 1520 c7 -11 16 -20 20 -20 15 0 8 15 -12 28 -19 12 -20 11 -8
-8z"/>
<path d="M3590 1501 c0 -4 11 -6 25 -3 14 2 25 6 25 8 0 2 -11 4 -25 4 -14 0
-25 -4 -25 -9z"/>
<path d="M2710 1461 c36 -31 179 -100 220 -106 21 -4 -1 8 -53 29 -48 18 -99
41 -112 50 -14 9 -37 23 -52 32 l-28 16 25 -21z"/>
<path d="M3950 1449 c-104 -42 -398 -84 -504 -72 -35 4 -47 3 -42 -6 9 -14
236 -15 325 0 75 12 212 55 238 75 21 16 17 16 -17 3z"/>
<path d="M4004 1424 c-18 -14 -18 -15 4 -4 12 6 22 13 22 15 0 8 -5 6 -26 -11z"/>
<path d="M3920 1390 c-8 -5 -10 -10 -5 -10 6 0 17 5 25 10 8 5 11 10 5 10 -5
0 -17 -5 -25 -10z"/>
<path d="M3835 1365 c-22 -8 -31 -13 -20 -13 11 0 36 6 55 13 45 17 18 17 -35
0z"/>
<path d="M3768 1343 c7 -3 16 -2 19 1 4 3 -2 6 -13 5 -11 0 -14 -3 -6 -6z"/>
<path d="M3693 1333 c9 -2 25 -2 35 0 9 3 1 5 -18 5 -19 0 -27 -2 -17 -5z"/>
<path d="M2649 1292 c5 -9 19 -26 32 -37 19 -16 18 -13 -5 18 -30 39 -43 49
-27 19z"/>
<path d="M2707 1214 c3 -7 12 -14 20 -14 8 0 11 -5 7 -12 -4 -7 -4 -10 0 -6 4
3 28 -9 53 -28 24 -19 49 -34 54 -34 6 0 7 -4 4 -10 -3 -5 0 -10 9 -10 8 0 21
-3 30 -6 9 -3 16 -1 16 5 0 6 -7 11 -16 11 -19 0 -120 66 -137 89 -16 23 -48
35 -40 15z"/>
<path d="M4330 1212 c0 -18 -111 -132 -174 -179 -32 -24 -55 -43 -51 -43 12 0
107 72 145 110 49 49 94 109 86 117 -3 3 -6 1 -6 -5z"/>
<path d="M3685 1170 c3 -5 8 -10 11 -10 2 0 4 5 4 10 0 6 -5 10 -11 10 -5 0
-7 -4 -4 -10z"/>
<path d="M2736 1132 c-3 -5 1 -9 9 -9 8 0 12 4 9 9 -3 4 -7 8 -9 8 -2 0 -6 -4
-9 -8z"/>
<path d="M3891 1124 c0 -11 3 -14 6 -6 3 7 2 16 -1 19 -3 4 -6 -2 -5 -13z"/>
<path d="M2740 1106 c0 -2 8 -10 18 -17 15 -13 16 -12 3 4 -13 16 -21 21 -21
13z"/>
<path d="M2813 1083 c4 -3 1 -13 -5 -22 -10 -13 -10 -14 2 -3 15 13 31 16 28
5 -2 -5 0 -9 5 -10 18 -7 19 -2 2 17 -10 11 -23 20 -28 20 -6 0 -7 -3 -4 -7z"/>
<path d="M4087 1051 c-41 -26 -46 -36 -10 -17 17 9 35 20 38 26 8 13 6 12 -28
-9z"/>
<path d="M2866 1034 c-3 -8 0 -11 8 -8 7 3 24 -6 39 -20 15 -14 29 -21 31 -17
3 4 -12 19 -34 33 -29 20 -40 23 -44 12z"/>
<path d="M4000 1000 c-19 -11 -31 -19 -27 -20 11 0 67 29 67 35 0 7 -1 7 -40
-15z"/>
<path d="M2953 975 c-3 -9 -3 -19 1 -22 3 -4 6 1 6 10 0 13 10 10 58 -14 31
-17 61 -35 67 -40 5 -5 18 -9 28 -9 16 0 17 -3 8 -14 -9 -11 -9 -16 0 -22 8
-4 9 -3 5 5 -11 17 17 23 49 11 15 -6 30 -9 32 -6 2 2 -19 12 -47 21 -28 9
-85 35 -126 56 -62 33 -76 37 -81 24z"/>
<path d="M4050 965 c-19 -14 -82 -42 -140 -64 -100 -38 -130 -58 -40 -26 49
17 53 18 46 7 -3 -5 1 -9 9 -9 10 0 12 4 5 12 -8 9 -4 14 12 18 28 6 146 56
134 57 -5 0 -3 7 4 15 17 20 11 18 -30 -10z"/>
<path d="M3882 953 c-24 -8 -41 -17 -39 -19 4 -5 97 26 97 32 0 6 -11 4 -58
-13z"/>
<path d="M3788 923 c6 -2 18 -2 25 0 6 3 1 5 -13 5 -14 0 -19 -2 -12 -5z"/>
<path d="M3748 913 c7 -3 16 -2 19 1 4 3 -2 6 -13 5 -11 0 -14 -3 -6 -6z"/>
<path d="M3688 903 c6 -2 18 -2 25 0 6 3 1 5 -13 5 -14 0 -19 -2 -12 -5z"/>
<path d="M3598 893 c12 -2 30 -2 40 0 9 3 -1 5 -23 4 -22 0 -30 -2 -17 -4z"/>
<path d="M3228 863 c7 -3 16 -2 19 1 4 3 -2 6 -13 5 -11 0 -14 -3 -6 -6z"/>
<path d="M3778 853 c7 -3 16 -2 19 1 4 3 -2 6 -13 5 -11 0 -14 -3 -6 -6z"/>
<path d="M3308 843 c7 -3 16 -2 19 1 4 3 -2 6 -13 5 -11 0 -14 -3 -6 -6z"/>
<path d="M3738 843 c7 -3 16 -2 19 1 4 3 -2 6 -13 5 -11 0 -14 -3 -6 -6z"/>
<path d="M3348 833 c6 -2 18 -2 25 0 6 3 1 5 -13 5 -14 0 -19 -2 -12 -5z"/>
<path d="M3655 830 c-26 -7 -23 -8 16 -6 26 0 45 4 42 9 -5 8 -16 8 -58 -3z"/>
<path d="M3390 826 c0 -8 48 -12 66 -5 13 5 7 8 -23 8 -24 1 -43 -1 -43 -3z"/>
<path d="M3513 810 c21 -4 53 -4 70 0 24 6 15 8 -38 8 -58 0 -64 -2 -32 -8z"/>
</g>
</svg>
